<?xml version="1.0" standalone="no"?>
<!DOCTYPE svg PUBLIC "-//W3C//DTD SVG 1.1//EN" "http://www.w3.org/Graphics/SVG/1.1/DTD/svg11.dtd" >
<svg xmlns="http://www.w3.org/2000/svg">
  <metadata>Created by iconfont</metadata>
  <defs>
  <font id="iconfont" horiz-adv-x="1024">
    <font-face
      font-family="iconfont"
      font-weight="400"
      font-stretch="normal"
      units-per-em="1024"
      ascent="896"
      descent="-128"
    />
      <missing-glyph />
      
      <glyph glyph-name="zhishikushenpi" unicode="&#58925;" d="M0 896m192 0l640 0q192 0 192-192l0-640q0-192-192-192l-640 0q-192 0-192 192l0 640q0 192 192 192ZM397.12 711.552c16.704 0 32.768-2.688 47.808-7.744 20.864-7.04 31.872-28.48 31.872-50.496v-236.544a35.2 35.2 0 1 1 70.4 0V653.312c0 22.016 11.008 43.52 31.872 50.496 15.04 4.992 31.104 7.744 47.744 7.744h120.576c70.208 0 127.104-56.896 127.104-127.104v-358.528c0-70.272-56.96-127.168-127.104-127.168-42.112 0-86.336-0.64-129.472-0.128a29.952 29.952 0 0 1-14.336-3.392l-59.072-31.04a67.2 67.2 0 0 0-61.696-0.448l-62.336 31.68a30.08 30.08 0 0 1-13.952 3.2c-43.328-0.64-87.68 0.128-129.92 0.128a127.168 127.168 0 0 0-127.168 127.168V584.448c0 70.208 56.96 127.104 127.168 127.104h120.512z"  horiz-adv-x="1024" />
      
      <glyph glyph-name="xiansuodaiban" unicode="&#58924;" d="M768 896H256a256 256 0 0 1-256-256v-512a256 256 0 0 1 256-256h512a256 256 0 0 1 256 256V640a256 256 0 0 1-256 256zM600.32 658.645333a115.712 115.712 0 0 0 115.669333-115.669333v-206.165333a98.048 98.048 0 1 0-54.741333 0V542.976a60.970667 60.970667 0 0 1-121.898667 0v-317.952a115.669333 115.669333 0 1 0-231.338666 0v206.165333a98.048 98.048 0 1 0 54.741333 0v-206.165333a60.970667 60.970667 0 0 1 121.856 0V542.976a115.712 115.712 0 0 0 115.712 115.669333z"  horiz-adv-x="1024" />
      
      <glyph glyph-name="a-jichu-fuzhifubenzhi1" unicode="&#58921;" d="M783.146667 667.52a170.666667 170.666667 0 0 0 170.666666-170.666667V384h-85.333333V496.853333a85.333333 85.333333 0 0 1-85.333333 85.333334h-384a85.333333 85.333333 0 0 1-85.333334-85.333334v-384a85.333333 85.333333 0 0 1 85.333334-85.333333H469.333333v-85.333333H399.146667a170.666667 170.666667 0 0 0-170.666667 170.666666v384a170.666667 170.666667 0 0 0 170.666667 170.666667h384zM780.501333 286.165333a42.666667 42.666667 0 0 0 60.330667 0L938.666667 188.330667a85.333333 85.333333 0 0 0 0-120.661334l-97.834667-97.834666a42.666667 42.666667 0 1 0-60.330667 60.330666L835.669333 85.333333H597.333333a42.666667 42.666667 0 0 0 0 85.333334h238.336l-55.168 55.168a42.666667 42.666667 0 0 0 0 60.330666zM758.784 825.6a42.666667 42.666667 0 0 0 0-84.906667l-4.309333-0.213333H347.52a192 192 0 0 1-192-192v-433.024a42.666667 42.666667 0 0 0-85.333333 0V548.522667a277.333333 277.333333 0 0 0 277.333333 277.333333h406.954667l4.309333-0.213333z"  horiz-adv-x="1024" />
      
      <glyph glyph-name="a-jichu-yidongwenjian1" unicode="&#58922;" d="M372.906667 834.773333c30.890667 0 60.074667-14.549333 78.634666-39.296l77.909334-103.893333a13.013333 13.013333 0 0 1 10.368-5.205333h287.573333A153.984 153.984 0 0 0 981.333333 532.437333V384h-85.333333V532.437333c0 37.888-30.72 68.608-68.608 68.608h-287.573333a98.346667 98.346667 0 0 0-78.634667 39.338667L383.232 744.234667a13.013333 13.013333 0 0 1-10.368 5.205333H196.693333C158.72 749.44 128 718.72 128 680.832v-593.621333c0-37.888 30.72-68.693333 68.608-68.693334H469.333333v-85.333333H196.608A154.026667 154.026667 0 0 0 42.666667 87.253333V680.832a153.984 153.984 0 0 0 153.941333 153.941333H372.906667z m407.594666-548.608a42.666667 42.666667 0 0 0 60.330667 0L938.666667 188.330667a85.333333 85.333333 0 0 0 0-120.661334l-97.834667-97.834666a42.666667 42.666667 0 1 0-60.330667 60.330666L835.669333 85.333333H597.333333a42.666667 42.666667 0 0 0 0 85.333334h238.336l-55.168 55.168a42.666667 42.666667 0 0 0 0 60.330666z"  horiz-adv-x="1024" />
      
      <glyph glyph-name="wenjiangeshi-yunwendang" unicode="&#58923;" d="M682.496 896L1024 554.752V128a256 256 0 0 0-256-256H256a256 256 0 0 0-256 256V640a256 256 0 0 0 256 256h426.496zM485.717333 309.632a42.666667 42.666667 0 0 0 0-85.333333H260.096a42.666667 42.666667 0 1 0 0 85.333333h225.621333zM616.448 543.744a42.709333 42.709333 0 0 0 0-85.333333H260.096a42.709333 42.709333 0 0 0 0 85.333333h356.352zM1024 554.666667h-256a85.333333 85.333333 0 0 0-85.333333 85.333333V896l341.333333-341.333333z"  horiz-adv-x="1024" />
      
      <glyph glyph-name="jichu-image" unicode="&#58880;" d="M734.9248 896C907.776 896 1024 775.0656 1024 594.5344v-420.5568c0-7.68-1.3824-14.6432-1.792-22.1184-0.256-4.352-0.2048-8.704-0.512-13.056-0.256-1.9456-0.8192-3.7376-1.024-5.6832a348.8256 348.8256 0 0 0-7.936-46.336c-0.9216-3.9936-2.048-7.8336-3.072-11.776-4.096-14.3872-8.9088-28.16-14.6944-41.3184-1.6896-3.6864-3.5328-7.168-5.2736-10.8544-6.2464-12.544-13.0048-24.576-20.8384-35.7376-2.4064-3.4304-5.0688-6.5024-7.5776-9.8304a260.096 260.096 0 0 0-26.2656-29.7984c-3.1232-2.9696-6.656-5.5808-9.9328-8.3456-9.8816-8.4992-19.968-16.64-31.0784-23.6032-3.9936-2.56-8.3968-4.352-12.4928-6.656-11.3152-6.1952-22.7328-12.288-35.1744-16.9984-5.12-1.9456-10.8032-2.9696-16.128-4.6592-12.2368-3.7888-24.32-7.7312-37.4784-9.984-9.9328-1.7408-20.736-1.9456-31.1808-2.816-8.9088-0.6656-17.408-2.4064-26.624-2.4064H288.6656a339.968 339.968 0 0 0-55.3984 4.864l-1.8944 0.3072c-69.2736 11.9296-126.7712 45.3632-167.0656 95.744-0.4608 0-0.4608 0.5632-0.9216 1.024C22.9376 24.9344 0 93.4912 0 173.9776V594.5344C0 775.0656 116.2752 896 288.6656 896h446.2592zM288.6656 824.576c-131.9424 0-217.1392-90.4704-217.1904-230.0416v-420.5568c0-39.1168 7.2704-74.1376 19.712-104.3968 2.0992 2.56 99.7888 121.6 101.2224 123.2384 35.4304 40.448 101.9392 100.7616 189.2352 64.256 20.992-8.704 39.424-20.9408 56.32-31.6928 29.3376-19.6096 46.592-28.8256 64.512-27.2896 7.424 1.024 14.336 3.2256 20.992 7.3216 28.5696 17.6128 109.312 135.3728 114.176 141.824 55.808 72.704 141.824 92.16 213.504 49.152 9.6256-5.7856 78.6432-53.9648 101.4784-73.3184V594.5344c0 139.5712-85.3504 230.0416-217.7536 230.0416H288.7168zM331.7248 691.2c35.7376 0 68.096-15.0016 91.2896-38.912 23.2448-23.1424 37.8368-55.04 37.8368-89.856C460.8512 493.1072 402.7904 435.2 333.1072 435.2 271.8208 435.2 219.5456 480 207.872 537.9584A123.5456 123.5456 0 0 0 204.8 564.8384 126.5664 126.5664 0 0 0 331.7248 691.2z"  horiz-adv-x="1024" />
      
      <glyph glyph-name="jichu-biaotoushaixuan" unicode="&#59130;" d="M614.485333 98.858667c-4.394667-66.986667-70.101333-57.386667-85.76-53.162667l-45.141333 19.114667a123.392 123.392 0 0 0-59.093333 105.301333v170.24a17.621333 17.621333 0 0 1-4.693334 11.946667l-244.693333 224.853333C122.624 633.472 162.56 725.333333 239.573333 725.333333h544.853334c76.288 0 116.522667-90.325333 65.493333-147.072l-230.912-217.514666a17.578667 17.578667 0 0 1-4.522667-11.776v-250.112z"  horiz-adv-x="1024" />
      
      <glyph glyph-name="jichu-biaotoushezhi" unicode="&#59131;" d="M434.688 789.930667a154.666667 154.666667 0 0 0 154.666667 0l235.562666-135.978667a154.709333 154.709333 0 0 0 77.354667-133.973333v-271.957334a154.709333 154.709333 0 0 0-77.354667-133.973333l-235.562666-135.978667a154.624 154.624 0 0 0-154.666667 0l-235.605333 135.978667a154.709333 154.709333 0 0 0-77.312 133.973333V519.978667c0 55.253333 29.482667 106.368 77.312 133.973333l235.605333 135.978667zM512 538.624a154.666667 154.666667 0 1 1 0-309.290667 154.666667 154.666667 0 0 1 0 309.333334z"  horiz-adv-x="1024" />
      
      <glyph glyph-name="a-Property1fuxuankuang-moren" unicode="&#58920;" d="M0 676.571429a219.428571 219.428571 0 0 0 219.428571 219.428571h585.142858a219.428571 219.428571 0 0 0 219.428571-219.428571v-585.142858a219.428571 219.428571 0 0 0-219.428571-219.428571H219.428571a219.428571 219.428571 0 0 0-219.428571 219.428571V676.571429zM804.571429-54.857143v-73.142857H219.428571v73.142857h585.142858z m146.285714 146.285714V676.571429a146.285714 146.285714 0 0 1-146.285714 146.285714H219.428571a146.285714 146.285714 0 0 1-146.285714-146.285714v-585.142858a146.285714 146.285714 0 0 1 146.285714-146.285714v-73.142857a219.428571 219.428571 0 0 0-219.428571 219.428571V676.571429a219.428571 219.428571 0 0 0 219.428571 219.428571h585.142858a219.428571 219.428571 0 0 0 219.428571-219.428571v-585.142858a219.428571 219.428571 0 0 0-219.428571-219.428571v73.142857a146.285714 146.285714 0 0 1 146.285714 146.285714z"  horiz-adv-x="1024" />
      
      <glyph glyph-name="a-Property1fuxuankuang-xuanzhong1" unicode="&#58919;" d="M0 896m219.428571 0l585.142858 0q219.428571 0 219.428571-219.428571l0-585.142858q0-219.428571-219.428571-219.428571l-585.142858 0q-219.428571 0-219.428571 219.428571l0 585.142858q0 219.428571 219.428571 219.428571ZM703.634286 551.862857a47.104 47.104 0 0 0 64.658285 0 42.642286 42.642286 0 0 0 0-62.098286L504.685714 236.836571c-29.696-28.525714-77.970286-28.525714-107.739428 0L255.707429 372.516571a42.715429 42.715429 0 0 0 0 62.098286 47.104 47.104 0 0 0 64.658285 0l130.56-125.366857L703.634286 551.862857z"  horiz-adv-x="1024" />
      
      <glyph glyph-name="jichu-tuominshenhe" unicode="&#58915;" d="M499.84 808.832a42.666667 42.666667 0 0 0 28.586667-1.408l341.205333-141.098667c15.957333-6.570667 26.368-22.186667 26.368-39.466666v-201.856c0-235.392-154.325333-394.368-370.645333-465.536a42.666667 42.666667 0 0 0-26.666667 0C282.368 30.634667 128 189.653333 128 425.088v201.813333c0 17.237333 10.410667 32.853333 26.368 39.424l341.504 141.098667 3.968 1.408zM213.333333 598.357333v-173.269333c0-184.618667 115.114667-315.306667 298.709334-379.946667C695.594667 109.781333 810.666667 240.426667 810.666667 424.96V598.357333L512.128 721.92 213.333333 598.357333zM567.466667 178.389333a55.466667 55.466667 0 1 0-110.933334 0 55.466667 55.466667 0 0 0 110.933334 0zM469.333333 331.776V627.669333a42.666667 42.666667 0 1 0 85.333334 0v-295.893333a42.666667 42.666667 0 1 0-85.333334 0z"  horiz-adv-x="1024" />
      
      <glyph glyph-name="jichu-quanxianshenqing" unicode="&#58914;" d="M499.84 808.832a42.666667 42.666667 0 0 0 28.586667-1.408l341.205333-141.098667c15.957333-6.613333 26.368-22.186667 26.368-39.466666v-201.856c0-235.392-154.325333-394.368-370.645333-465.578667a42.709333 42.709333 0 0 0-26.666667 0C282.368 30.634667 128 189.653333 128 425.088v201.813333c0 17.237333 10.410667 32.853333 26.368 39.424l341.504 141.098667 3.968 1.408zM213.333333 598.357333v-173.269333c0-184.618667 115.114667-315.306667 298.709334-379.989333C695.594667 109.781333 810.666667 240.426667 810.666667 425.002667V598.357333L512.128 721.92 213.333333 598.357333z m442.026667-96.298666a42.666667 42.666667 0 0 0 54.613333-65.493334l-204.288-170.666666a42.666667 42.666667 0 0 0-58.368 3.413333l-94.293333 99.541333a42.666667 42.666667 0 0 0 61.952 58.709334l66.730667-70.442667 173.653333 144.938667z"  horiz-adv-x="1024" />
      
      <glyph glyph-name="a-jichu-jine" unicode="&#59128;" d="M593.237333 582.912a42.666667 42.666667 0 1 0 66.261334-53.76L610.944 469.333333h27.946667a42.666667 42.666667 0 0 0 0-85.333333h-87.466667v-32h87.466667a42.666667 42.666667 0 0 0 0-85.333333h-87.466667v-81.536a42.666667 42.666667 0 0 0-85.333333 0V266.666667H385.109333a42.666667 42.666667 0 1 0 0 85.333333h80.981334V384H385.109333a42.666667 42.666667 0 0 0 0 85.333333h30.976L366.208 528.554667a42.666667 42.666667 0 0 0 65.28 54.997333l82.602667-98.133333 79.146666 97.493333zM512 853.333333c259.2 0 469.333333-210.133333 469.333333-469.333333s-210.133333-469.333333-469.333333-469.333333S42.666667 124.8 42.666667 384 252.8 853.333333 512 853.333333z m0-85.333333a384 384 0 1 1 0-768 384 384 0 0 1 0 768z"  horiz-adv-x="1024" />
      
      <glyph glyph-name="a-jichu-jine1" unicode="&#59129;" d="M515.541333 696.661333a42.666667 42.666667 0 0 0 42.666667-42.666666v-42.666667c0-1.194667-0.128-2.346667-0.213333-3.498667 38.4-6.314667 69.376-21.376 91.818666-46.208 9.813333-9.941333 16.298667-21.504 16.298667-34.56 0-7.68-1.706667-15.061333-5.76-21.504a34.56 34.56 0 0 0-10.922667-10.666666l-7.893333-4.394667a35.968 35.968 0 0 0-25.6-2.389333c-9.6 2.56-18.773333 8.533333-27.562667 16.469333l-0.085333 0.085333c-17.109333 15.914667-41.642667 24.661333-75.306667 24.746667-26.069333-1.408-44.458667-7.04-56.490666-15.530667-11.392-8.106667-18.133333-19.456-20.053334-35.328-0.298667-9.258667 4.608-18.986667 21.333334-28.757333 14.933333-8.789333 37.717333-16.384 68.949333-22.442667l13.909333-2.517333 0.426667-0.085333 0.469333-0.128c42.538667-10.453333 76.16-26.794667 99.626667-49.877334 23.765333-23.338667 36.394667-52.864 37.973333-87.594666v-1.066667c-1.536-44.032-16.810667-79.018667-47.104-102.826667-19.413333-15.146667-44.202667-25.045333-73.813333-30.378666v-38.869334a42.666667 42.666667 0 0 0-85.333333 0v37.418667c-50.986667 8.106667-92.032 29.952-121.898667 66.346667l-0.938667 1.109333-0.682666 1.28c-8.576 17.237333-4.266667 34.816 7.893333 50.432l22.869333 11.306667a37.162667 37.162667 0 0 0 8.96 0.64c8.533333-0.426667 16.725333-3.669333 24.405334-8.704l7.552-5.632 0.725333-0.554667 0.597333-0.725333c22.144-24.746667 49.834667-37.674667 83.84-39.04 31.061333 0.725333 52.48 6.826667 66.005334 16.554666 12.842667 9.216 19.968 22.613333 20.650666 42.197334-0.725333 14.677333-7.637333 27.050667-22.698666 37.632-15.786667 11.050667-40.32 19.84-74.88 25.472l-0.298667 0.042666-0.298667 0.085334c-45.184 9.642667-80.768 24.704-105.429333 46.165333a109.738667 109.738667 0 0 0-39.04 83.072v0.597333l0.042667 0.682667c3.114667 40.362667 18.346667 72.661333 46.506666 95.146667 19.925333 15.829333 45.568 26.154667 76.288 31.573333a42.922667 42.922667 0 0 0-0.170666 4.266667v42.666666a42.666667 42.666667 0 0 0 42.666666 42.666667zM512 853.333333c259.2 0 469.333333-210.133333 469.333333-469.333333s-210.133333-469.333333-469.333333-469.333333S42.666667 124.8 42.666667 384 252.8 853.333333 512 853.333333z m0-85.333333a384 384 0 1 1 0-768 384 384 0 0 1 0 768z"  horiz-adv-x="1024" />
      
      <glyph glyph-name="jichu-shiyan" unicode="&#58913;" d="M533.333333 712.362667c162.218667 104.362667 317.013333 134.144 389.461334 61.696 72.234667-72.277333 42.837333-226.304-60.757334-387.925334 108.074667-164.736 139.818667-322.986667 66.304-396.501333-73.301333-73.301333-230.826667-41.941333-395.008 65.322667-164.181333-107.264-321.664-138.581333-394.965333-65.322667-73.514667 73.514667-41.813333 231.765333 66.261333 396.501333C101.034667 547.797333 71.68 701.781333 143.914667 774.058667c72.490667 72.448 227.242667 42.666667 389.418666-61.696z m-275.370666-401.578667a646.4 646.4 0 0 1-52.650667-107.776c-35.84-97.194667-18.858667-140.757333-6.613333-153.002667 12.288-12.245333 55.808-29.226667 153.002666 6.570667a645.248 645.248 0 0 1 106.794667 52.138667 1177.386667 1177.386667 0 0 0-103.424 92.16c-35.84 35.84-68.266667 72.789333-97.109333 109.909333z m550.698666 0a1172.778667 1172.778667 0 0 0-97.066666-109.952 1177.344 1177.344 0 0 0-103.466667-92.117333c37.290667-22.314667 73.386667-39.808 106.837333-52.138667 97.194667-35.797333 140.714667-18.816 153.002667-6.570667 12.245333 12.245333 29.226667 55.808-6.570667 153.002667a646.528 646.528 0 0 1-52.736 107.776zM533.333333 608.853333a1072.213333 1072.213333 0 0 1-123.477333-106.325333 1077.717333 1077.717333 0 0 1-101.461333-116.864c30.293333-41.472 66.048-83.541333 107.008-124.501333 38.826667-38.826667 78.592-72.96 117.930666-102.186667a1077.12 1077.12 0 0 1 117.930667 102.186667c40.96 40.96 76.672 83.072 107.008 124.501333a1077.845333 1077.845333 0 0 1-101.461333 116.906667 1072.341333 1072.341333 0 0 1-123.477334 106.24z m0-139.52a106.666667 106.666667 0 1 0 0-213.333333 106.666667 106.666667 0 0 0 0 213.333333zM357.248 707.114667c-97.194667 35.84-140.714667 18.858667-153.002667 6.613333-12.245333-12.288-29.226667-55.808 6.570667-153.002667 11.52-31.317333 27.648-64.853333 47.914667-99.584a1179.008 1179.008 0 0 0 90.794666 101.76 1175.210667 1175.210667 0 0 0 108.245334 95.829334 636.586667 636.586667 0 0 1-100.522667 48.384z m505.173333 6.613333c-12.288 12.245333-55.808 29.226667-153.002666-6.613333-31.573333-11.605333-65.450667-27.861333-100.522667-48.384 36.565333-28.501333 72.96-60.586667 108.245333-95.872 33.194667-33.194667 63.530667-67.328 90.752-101.717334 20.266667 34.730667 36.394667 68.266667 47.957334 99.584 35.797333 97.194667 18.816 140.714667 6.570666 153.002667z"  horiz-adv-x="1024" />
      
      <glyph glyph-name="yasuobao" unicode="&#58912;" d="M0 298.666667h1024v-170.666667a256 256 0 0 0-256-256H256a256 256 0 0 0-256 256v170.666667zM0 469.333333h1024V640a256 256 0 0 1-256 256H256a256 256 0 0 1-256-256v-170.666667zM0 554.666667h1024v-341.333334H0V554.666667zM640 896v-1024H384V896h256zM768 512v-256H256V512h512zM341.333333 341.333333h341.333334v85.333334H341.333333v-85.333334z"  horiz-adv-x="1024" />
      
      <glyph glyph-name="morenwenjian" unicode="&#58909;" d="M768 896H256a256 256 0 0 1-256-256v-512a256 256 0 0 1 256-256h512a256 256 0 0 1 256 256V640a256 256 0 0 1-256 256zM597.248 640L768 469.333333v-213.333333a128 128 0 0 0-128-128H384a128 128 0 0 0-128 128V512a128 128 0 0 0 128 128h213.248zM498.858667 346.794667a21.333333 21.333333 0 0 0 0-42.666667H386.048a21.333333 21.333333 0 1 0 0 42.666667h112.810667zM564.224 463.872a21.333333 21.333333 0 0 0 0-42.666667H386.048a21.333333 21.333333 0 0 0 0 42.666667h178.176zM768 469.333333h-128a42.666667 42.666667 0 0 0-42.666667 42.666667V640l170.666667-170.666667z"  horiz-adv-x="1024" />
      
      <glyph glyph-name="yinle" unicode="&#58910;" d="M768 896H256a256 256 0 0 1-256-256v-512a256 256 0 0 1 256-256h512a256 256 0 0 1 256 256V640a256 256 0 0 1-256 256zM636.885333 347.818667l-0.256 0.682666a156.928 156.928 0 0 1-2.645333 6.869334l-62.506667 163.413333a5.717333 5.717333 0 0 0 5.290667 7.765333l24.234667 0.213334c32.768 0.341333 48.981333 16.853333 48.64 49.621333-0.298667 32.725333-16.810667 48.938667-49.578667 48.64l-100.608-0.981333c-20.096-0.170667-33.962667-6.485333-41.6-18.858667-11.776-12.074667-13.653333-28.586667-5.717333-49.493333l36.949333-96.597334a5.717333 5.717333 0 0 0-5.034667-7.765333 154.752 154.752 0 1 1 161.066667-165.418667v0.128a154.453333 154.453333 0 0 1-8.234667 61.781334z"  horiz-adv-x="1024" />
      
      <glyph glyph-name="shipin1" unicode="&#58911;" d="M768 896H256a256 256 0 0 1-256-256v-512a256 256 0 0 1 256-256h512a256 256 0 0 1 256 256V640a256 256 0 0 1-256 256zM682.666667 457.898667c56.874667-32.853333 56.874667-114.944 0-147.797334l-192-110.848c-56.874667-32.853333-128 8.192-128 73.898667V494.848c0 65.706667 71.125333 106.752 128 73.898667l192-110.848z"  horiz-adv-x="1024" />
      
      <glyph glyph-name="jichu-huibao" unicode="&#58908;" d="M767.914667 46.933333a46.933333 46.933333 0 1 0 0.170666-93.866666l-512-0.896a46.933333 46.933333 0 1 0-0.170666 93.866666l512 0.853334zM849.066667 699.733333a21.333333 21.333333 0 0 1-21.333334 21.333334H196.266667a21.333333 21.333333 0 0 1-21.333334-21.333334v-460.8a21.333333 21.333333 0 0 1 21.333334-21.333333h631.466666a21.333333 21.333333 0 0 1 21.333334 21.333333V699.733333z m93.866666-460.8a115.2 115.2 0 0 0-115.2-115.2H196.266667a115.2 115.2 0 0 0-115.2 115.2V699.733333a115.2 115.2 0 0 0 115.2 115.2h631.466666a115.2 115.2 0 0 0 115.2-115.2v-460.8z"  horiz-adv-x="1024" />
      
      <glyph glyph-name="jichu-zhichu" unicode="&#58905;" d="M802.346667 585.813333a42.666667 42.666667 0 0 0-85.333334 0V682.666667a85.333333 85.333333 0 0 1-85.333333 85.333333h-384a85.333333 85.333333 0 0 1-85.333333-85.333333v-597.333334a85.333333 85.333333 0 0 1 85.333333-85.333333h384a85.333333 85.333333 0 0 1 85.333333 85.333333v98.090667a42.666667 42.666667 0 0 0 85.333334 0V85.333333a170.666667 170.666667 0 0 0-170.666667-170.666666h-384a170.666667 170.666667 0 0 0-170.666667 170.666666V682.666667a170.666667 170.666667 0 0 0 170.666667 170.666666h384a170.666667 170.666667 0 0 0 170.666667-170.666666v-96.853334z m132.693333-172.202666a42.666667 42.666667 0 0 0 0-59.306667l-96.853333-100.138667a42.666667 42.666667 0 0 0-61.312 59.306667l26.88 27.818667H405.333333a42.666667 42.666667 0 0 0 0 85.333333h398.506667l-26.965333 27.861333a42.709333 42.709333 0 0 0 61.312 59.349334l96.853333-100.224z"  horiz-adv-x="1024" />
      
      <glyph glyph-name="jichu-shouru" unicode="&#58906;" d="M802.304 585.813333a42.666667 42.666667 0 0 0-85.333333 0V682.666667a85.333333 85.333333 0 0 1-85.333334 85.333333h-384a85.333333 85.333333 0 0 1-85.333333-85.333333v-597.333334a85.333333 85.333333 0 0 1 85.333333-85.333333h384a85.333333 85.333333 0 0 1 85.333334 85.333333v98.090667a42.666667 42.666667 0 0 0 85.333333 0V85.333333a170.666667 170.666667 0 0 0-170.666667-170.666666h-384a170.666667 170.666667 0 0 0-170.666666 170.666666V682.666667a170.666667 170.666667 0 0 0 170.666666 170.666666h384a170.666667 170.666667 0 0 0 170.666667-170.666666v-96.853334zM947.029333 384a42.666667 42.666667 0 0 0-42.666666-42.666667h-398.464l26.88-27.861333a42.666667 42.666667 0 1 0-61.312-59.306667l-96.853334 100.181334a42.666667 42.666667 0 0 0 0 59.306666l96.853334 100.181334a42.666667 42.666667 0 0 0 61.354666-59.306667l-26.88-27.861333h398.421334a42.666667 42.666667 0 0 0 42.666666-42.666667z"  horiz-adv-x="1024" />
      
      <glyph glyph-name="jichu-wenben" unicode="&#58907;" d="M554.666667 256a42.666667 42.666667 0 1 0 0-85.333333H384a42.666667 42.666667 0 1 0 0 85.333333h170.666667zM640 426.666667a42.666667 42.666667 0 1 0 0-85.333334H384a42.666667 42.666667 0 1 0 0 85.333334h256zM469.333333 597.333333a42.666667 42.666667 0 1 0 0-85.333333H384a42.666667 42.666667 0 0 0 0 85.333333h85.333333zM725.333333 810.666667a170.666667 170.666667 0 0 0 170.666667-170.666667v-512a170.666667 170.666667 0 0 0-161.877333-170.453333L725.333333-42.666667H298.666667l-8.789334 0.213334a170.709333 170.709333 0 0 0-161.706666 161.664L128 128V640a170.666667 170.666667 0 0 0 170.666667 170.666667h426.666666zM298.666667 725.333333a85.333333 85.333333 0 0 1-85.333334-85.333333v-512a85.333333 85.333333 0 0 1 85.333334-85.333333h426.666666a85.333333 85.333333 0 0 1 85.333334 85.333333V640a85.333333 85.333333 0 0 1-85.333334 85.333333H298.666667z"  horiz-adv-x="1024" />
      
      <glyph glyph-name="jichu-shuangjiantouxia" unicode="&#58903;" d="M853.12 316.885333a42.666667 42.666667 0 0 1-60.330667 60.330667l-280.746666-280.746667-280.832 280.746667a42.666667 42.666667 0 1 1-60.330667-60.330667l280.746667-280.789333a85.333333 85.333333 0 0 1 120.746666 0l280.746667 280.789333z m0 367.189334a42.666667 42.666667 0 0 1-60.330667 60.373333l-280.746666-280.789333-280.832 280.746666a42.666667 42.666667 0 0 1-60.330667-60.330666l280.746667-280.746667a85.333333 85.333333 0 0 1 120.746666 0l280.746667 280.746667z"  horiz-adv-x="1024" />
      
      <glyph glyph-name="jichu-shuangjiantoushang" unicode="&#58904;" d="M170.837333 451.114667a42.666667 42.666667 0 0 1 60.373334-60.330667l280.746666 280.746667 280.832-280.746667a42.666667 42.666667 0 1 1 60.373334 60.330667l-280.789334 280.789333a85.333333 85.333333 0 0 1-120.746666 0l-280.746667-280.789333z m0-367.232a42.666667 42.666667 0 0 1 60.373334-60.330667l280.746666 280.832 280.832-280.832a42.666667 42.666667 0 0 1 60.373334 60.373333l-280.789334 280.746667a85.333333 85.333333 0 0 1-120.746666 0l-280.746667-280.746667z"  horiz-adv-x="1024" />
      
      <glyph glyph-name="jichu-guanbitianchong1" unicode="&#58901;" d="M512 853.333333c259.2 0 469.333333-210.133333 469.333333-469.333333s-210.133333-469.333333-469.333333-469.333333S42.666667 124.8 42.666667 384 252.8 853.333333 512 853.333333z m169.770667-299.52a42.666667 42.666667 0 0 1-60.330667 0l-109.482667-109.44-109.397333 109.397334A42.666667 42.666667 0 0 1 342.186667 493.44l109.397333-109.397333-109.397333-109.482667a42.666667 42.666667 0 0 1 60.330666-60.330667l109.397334 109.482667 109.482666-109.482667a42.666667 42.666667 0 1 1 60.330667 60.330667l-109.482667 109.482667 109.482667 109.397333a42.666667 42.666667 0 0 1 0 60.330667z"  horiz-adv-x="1024" />
      
      <glyph glyph-name="daohang-yingyanbi" unicode="&#58900;" d="M887.466667 384A375.466667 375.466667 0 0 1 512 759.466667 375.466667 375.466667 0 0 1 136.533333 384a375.466667 375.466667 0 0 1 375.466667-375.466667 375.466667 375.466667 0 0 1 375.466667 375.466667z m102.4 0c0-263.936-213.930667-477.866667-477.866667-477.866667C248.064-93.866667 34.133333 120.064 34.133333 384 34.133333 647.936 248.064 861.866667 512 861.866667 775.936 861.866667 989.866667 647.936 989.866667 384zM427.52 384L512 299.52 596.48 384 512 468.48 427.52 384z m147.84-153.856a89.6 89.6 0 0 0-126.72 0l-90.496 90.496a89.6 89.6 0 0 0 0 126.72l90.496 90.496a89.6 89.6 0 0 0 126.72 0l90.496-90.496a89.6 89.6 0 0 0 0-126.72l-90.496-90.453333z"  horiz-adv-x="1024" />
      
      <glyph glyph-name="daohang-yingyanbi-tianchong" unicode="&#58899;" d="M512 861.866667C775.936 861.866667 989.866667 647.936 989.866667 384c0-263.936-213.930667-477.866667-477.866667-477.866667C248.064-93.866667 34.133333 120.064 34.133333 384 34.133333 647.936 248.064 861.866667 512 861.866667z m63.317333-324.010667a89.6 89.6 0 0 1-126.634666 0l-90.538667-90.538667a89.6 89.6 0 0 1 0-126.634666l90.538667-90.496c34.986667-34.986667 91.648-34.986667 126.634666 0l90.538667 90.453333a89.6 89.6 0 0 1 0 126.72l-90.538667 90.496zM596.48 384L512 299.52 427.52 384 512 468.48 596.48 384z"  horiz-adv-x="1024" />
      
      <glyph glyph-name="daohang-jihua" unicode="&#59126;" d="M768 722.858667a196.266667 196.266667 0 0 0 196.266667-196.266667v-426.666667a196.266667 196.266667 0 0 0-196.266667-196.224H256a196.266667 196.266667 0 0 0-196.266667 196.266667v426.666667a196.266667 196.266667 0 0 0 196.266667 196.266666h512zM256 629.034667a102.4 102.4 0 0 1-102.4-102.4v-426.666667a102.4 102.4 0 0 1 102.4-102.4h512a102.4 102.4 0 0 1 102.4 102.4v426.666667a102.4 102.4 0 0 1-102.4 102.4H256z m382.805333-180.778667a46.933333 46.933333 0 0 0 66.304-66.346667l-173.354666-173.397333a89.6 89.6 0 0 0-126.72 0l-86.101334 86.186667a46.933333 46.933333 0 0 0 66.304 66.346666l83.114667-83.114666 170.453333 170.325333z m47.658667 416a46.933333 46.933333 0 0 0 0-93.781333H337.493333a46.933333 46.933333 0 1 0 0 93.824h348.928z"  horiz-adv-x="1024" />
      
      <glyph glyph-name="daohang-jihuatianchong" unicode="&#59127;" d="M768 722.858667a196.266667 196.266667 0 0 0 196.266667-196.266667v-426.666667a196.266667 196.266667 0 0 0-196.266667-196.224H256a196.266667 196.266667 0 0 0-196.266667 196.266667v426.666667a196.266667 196.266667 0 0 0 196.266667 196.266666h512z m-62.933333-274.602667a46.933333 46.933333 0 0 1-66.304 0l-170.410667-170.325333-83.157333 83.114666a46.933333 46.933333 0 0 1-66.304-66.389333l86.101333-86.186667a89.6 89.6 0 0 1 126.72 0l173.354667 173.44c18.346667 18.346667 18.346667 48 0 66.346667zM686.506667 864.256a46.933333 46.933333 0 0 0 0-93.781333H337.493333a46.933333 46.933333 0 1 0 0 93.824h348.928z"  horiz-adv-x="1024" />
      
      <glyph glyph-name="kuangjia-quxiaozuidahua" unicode="&#59125;" d="M248.192 649.856a192.042667 192.042667 0 0 1-192.042667-192v-334.634667c0-106.026667 86.016-192 192-192h334.677334c106.026667 0 192 85.973333 192 192v334.634667a192 192 0 0 1-192 192H248.192z m334.634667-128a64 64 0 0 0 64-64v-334.634667c0-35.328-28.672-64-64-64H248.192c-35.328 0-64.042667 28.672-64.042667 64v334.634667c0 35.328 28.714667 64 64 64h334.677334zM342.784 836.821333a64 64 0 0 1 0-128h262.4a234.666667 234.666667 0 0 0 234.666667-234.666666v-305.152a64 64 0 0 1 128 0V474.154667a362.666667 362.666667 0 0 1-362.666667 362.666666h-262.4z"  horiz-adv-x="1024" />
      
      <glyph glyph-name="jichu-shuangjiantouzuo" unicode="&#59123;" d="M444.842667 725.162667a42.666667 42.666667 0 0 0 60.373333-60.330667L224.384 384l280.832-280.832a42.666667 42.666667 0 1 0-60.373333-60.373333l-280.746667 280.789333a85.376 85.376 0 0 0 0 120.746667l280.746667 280.746666z m367.232 0a42.666667 42.666667 0 0 0 60.330666-60.330667L591.616 384l280.746667-280.832a42.666667 42.666667 0 0 0-60.288-60.373333l-280.789334 280.789333a85.376 85.376 0 0 0 0 120.746667l280.746667 280.746666z"  horiz-adv-x="1024" />
      
      <glyph glyph-name="jichu-shuangjiantouyou" unicode="&#59124;" d="M579.114667 725.162667a42.666667 42.666667 0 0 1-60.330667-60.373334l280.746667-280.746666-280.746667-280.832a42.666667 42.666667 0 1 1 60.330667-60.373334l280.789333 280.789334a85.333333 85.333333 0 0 1 0 120.746666l-280.789333 280.746667z m-367.189334 0A42.666667 42.666667 0 0 1 151.552 664.746667l280.789333-280.746667-280.746666-280.832a42.666667 42.666667 0 0 1 60.330666-60.373333l280.746667 280.789333a85.333333 85.333333 0 0 1 0 120.746667l-280.746667 280.746666z"  horiz-adv-x="1024" />
      
      <glyph glyph-name="kuangjia-duihao" unicode="&#59122;" d="M796.416 628.778667a70.741333 70.741333 0 0 0 95.914667 0 61.44 61.44 0 0 0 0-90.496l-391.04-368.896c-44.16-41.642667-115.712-41.642667-159.872 0l-209.749334 197.845333a61.525333 61.525333 0 0 0 0 90.538667 70.784 70.784 0 0 0 95.914667 0l193.792-182.784 375.04 353.792z"  horiz-adv-x="1024" />
      
      <glyph glyph-name="kuangjia-jiantoushang" unicode="&#59121;" d="M868.266667 291.413333a64 64 0 0 0-90.538667-90.453333l-250.624 250.581333a21.333333 21.333333 0 0 1-30.165333 0L246.272 200.96a64 64 0 1 0-90.496 90.538667l250.624 250.624a149.333333 149.333333 0 0 0 211.2 0l250.624-250.624z"  horiz-adv-x="1024" />
      
      <glyph glyph-name="jichu-shijiantianchong" unicode="&#59120;" d="M512 853.333333c259.2 0 469.333333-210.133333 469.333333-469.333333s-210.133333-469.333333-469.333333-469.333333S42.666667 124.8 42.666667 384 252.8 853.333333 512 853.333333z m0-163.157333a42.666667 42.666667 0 0 1-42.666667-42.666667v-240.256l0.213334-8.448a170.666667 170.666667 0 0 1 49.792-112.213333l102.229333-102.314667a42.666667 42.666667 0 0 1 60.330667 60.330667l-102.229334 102.314667a85.333333 85.333333 0 0 0-24.576 51.925333l-0.426666 8.405333v240.213334a42.666667 42.666667 0 0 1-42.666667 42.666666z"  horiz-adv-x="1024" />
      
      <glyph glyph-name="daohang-richangbangong" unicode="&#59119;" d="M448.469333 46.08a46.933333 46.933333 0 1 0 0-93.866667H226.688a46.933333 46.933333 0 0 0 0 93.866667h221.781333zM870.4 531.712a115.2 115.2 0 0 0 115.2-115.157333v-349.098667a115.2 115.2 0 0 0-115.2-115.2h-189.013333a115.2 115.2 0 0 0-115.2 115.2v349.098667a115.2 115.2 0 0 0 115.2 115.2h189.013333z m-189.013333-93.824a21.333333 21.333333 0 0 1-21.333334-21.333333v-349.098667a21.333333 21.333333 0 0 1 21.333334-21.333333h189.013333a21.333333 21.333333 0 0 1 21.333333 21.333333v349.098667a21.333333 21.333333 0 0 1-21.333333 21.333333h-189.013333z m41.728 377.898667a174.933333 174.933333 0 0 0 174.933333-174.933334v-3.541333a46.933333 46.933333 0 0 0-93.866667 0V640.853333a81.066667 81.066667 0 0 1-81.066666 81.066667H213.333333a81.066667 81.066667 0 0 1-81.066666-81.066667v-363.008a81.066667 81.066667 0 0 1 81.066666-81.066666h238.165334a46.976 46.976 0 0 0 0-93.866667H213.333333a174.933333 174.933333 0 0 0-174.933333 174.933333V640.853333A174.933333 174.933333 0 0 0 213.333333 815.786667h509.781334z"  horiz-adv-x="1024" />
      
      <glyph glyph-name="daohang-richangbangong-tianchong" unicode="&#59117;" d="M448.469333 46.08a46.933333 46.933333 0 1 0 0-93.866667H226.688a46.933333 46.933333 0 0 0 0 93.866667h221.781333zM870.4 531.712a115.2 115.2 0 0 0 115.2-115.157333v-349.098667a115.2 115.2 0 0 0-115.2-115.2h-189.013333a115.2 115.2 0 0 0-115.2 115.2v349.098667a115.2 115.2 0 0 0 115.2 115.2h189.013333z m-189.013333-93.824a21.333333 21.333333 0 0 1-21.333334-21.333333v-349.098667a21.333333 21.333333 0 0 1 21.333334-21.333333h189.013333a21.333333 21.333333 0 0 1 21.333333 21.333333v349.098667a21.333333 21.333333 0 0 1-21.333333 21.333333h-189.013333zM723.114667 815.786667a174.933333 174.933333 0 0 0 174.933333-174.933334v-15.189333c0-14.592-13.056-25.685333-27.648-25.685333h-189.013333a183.466667 183.466667 0 0 1-183.466667-183.424v-270.976a42.666667 42.666667 0 0 0-42.666667-42.666667H213.333333a174.933333 174.933333 0 0 0-174.933333 174.933333V640.853333A174.933333 174.933333 0 0 0 213.333333 815.786667h509.781334z"  horiz-adv-x="1024" />
      
      <glyph glyph-name="jichu-didian" unicode="&#59114;" d="M215.168 731.008c164.010667 162.56 429.738667 162.56 593.706667 0a414.421333 414.421333 0 0 0 0.085333-589.44h0.042667l-176.213334-176.426667a170.709333 170.709333 0 0 0-241.536 0l-176.213333 176.384a414.464 414.464 0 0 0 0.128 589.482667zM748.8 670.378667c-130.730667 129.578667-342.869333 129.578667-473.6 0a329.045333 329.045333 0 0 1-11.818667-456.021334l11.818667-12.373333 0.170667-0.128 176.256-176.426667a85.333333 85.333333 0 0 1 120.746666 0l176.213334 176.426667 0.213333 0.128a329.088 329.088 0 0 1 0 468.394667zM512 607.658667a174.762667 174.762667 0 1 0-0.085333-349.482667A174.762667 174.762667 0 0 0 512 607.658667z m0-85.333334a89.429333 89.429333 0 1 1 0-178.858666 89.429333 89.429333 0 0 1 0 178.858666z"  horiz-adv-x="1024" />
      
      <glyph glyph-name="daohang-OAguanli" unicode="&#59108;" d="M797.269333 26.666667a46.933333 46.933333 0 1 0 0-93.866667H226.688a46.933333 46.933333 0 1 0 0 93.866667h570.581333zM667.733333 624.597333a34.944 34.944 0 0 0 23.466667-7.381333c5.248-4.053333 9.685333-9.557333 13.397333-16.213333l3.413334-6.954667 0.128-0.128 101.973333-240 0.213333-0.597333 0.170667-0.554667c3.242667-12.373333 3.413333-24.021333-2.048-33.194667-5.674667-9.472-16-13.866667-27.904-14.976l-0.384-0.042666h-0.426667a39.04 39.04 0 0 0-22.442666 6.4 38.698667 38.698667 0 0 0-13.994667 18.56l-23.210667 56.021333h-108.8l-24.746666-54.954667v0.042667c-2.858667-8.618667-7.168-15.914667-13.653334-20.650667a31.445333 31.445333 0 0 0-23.466666-5.333333h-0.384c-11.690667 1.194667-21.888 5.546667-27.264 15.146667-5.162667 9.301333-4.437333 20.992-0.682667 33.28l0.128 0.469333 0.213333 0.426667 103.466667 240c3.882667 9.856 9.301333 17.92 16.64 23.381333a38.570667 38.570667 0 0 0 25.088 7.253333h1.109333z m-29.226666-173.952h54.912l-26.453334 63.061334-28.458666-63.061334zM386.005333 623.445333c38.528-4.053333 69.333333-17.706667 91.434667-41.685333 25.088-27.306667 37.802667-66.730667 39.338667-116.906667v-0.426666c-1.024-50.688-13.44-90.453333-38.613334-117.76-25.301333-27.434667-62.208-41.088-109.226666-42.112h-0.554667c-46.08 2.048-82.346667 16.256-107.52 43.605333-25.130667 27.264-38.101333 66.389333-40.149333 116.053333v0.597334c1.536 50.218667 14.250667 89.642667 39.381333 116.906666 25.216 27.434667 61.824 41.386667 108.373333 42.922667h0.554667l16.981333-1.194667z m-15.786666-63.914666c-25.514667-0.981333-43.861333-9.386667-56.448-24.32-12.8-15.232-20.48-38.4-21.973334-70.698667 1.024-32.853333 8.533333-56.32 21.290667-71.68 12.544-15.189333 31.146667-23.68 57.130667-24.661333 24.362667 0.981333 41.984 9.386667 54.101333 24.490666 12.373333 15.488 19.84 39.04 21.333333 71.936-1.493333 32.341333-8.96 55.509333-21.290666 70.741334-12.074667 14.933333-29.738667 23.210667-54.186667 24.192zM768 835.157333a217.6 217.6 0 0 0 217.6-217.6v-316.501333a217.6 217.6 0 0 0-217.6-217.6H256a217.6 217.6 0 0 0-217.6 217.6V617.557333a217.6 217.6 0 0 0 217.6 217.6h512z m-512-93.866666a123.733333 123.733333 0 0 1-123.733333-123.733334v-316.501333a123.733333 123.733333 0 0 1 123.733333-123.733333h512a123.733333 123.733333 0 0 1 123.733333 123.733333V617.557333a123.733333 123.733333 0 0 1-123.733333 123.733334H256z"  horiz-adv-x="1024" />
      
      <glyph glyph-name="daohang-AI" unicode="&#59109;" d="M435.2 863.146667a153.6 153.6 0 0 0 153.6 0l107.989333-62.293334a17.066667 17.066667 0 0 0 7.338667-21.077333l-9.301333-23.594667a28.885333 28.885333 0 0 0-16.213334-16.213333l-18.901333-7.466667a42.752 42.752 0 0 0-36.992 2.730667L541.866667 781.909333a59.776 59.776 0 0 1-59.733334 0L182.314667 608.810667c-18.474667-10.666667-29.866667-30.378667-29.866667-51.712v-346.197334c0-21.333333 11.392-41.088 29.866667-51.754666l299.818666-173.056c18.474667-10.666667 41.258667-10.666667 59.733334 0l299.818666 173.056c18.474667 10.666667 29.866667 30.421333 29.866667 51.754666V468.48a85.333333 85.333333 0 0 0 5.973333 31.317333l11.648 29.568a28.885333 28.885333 0 0 0 16.213334 16.213334l48.384 19.072c5.546667 2.176 11.605333-1.578667 11.605333-7.509334v-346.197333a153.6 153.6 0 0 0-76.8-132.992L588.8-95.189333a153.6 153.6 0 0 0-153.6 0l-299.776 173.098666a153.6 153.6 0 0 0-76.8 132.992V557.098667a153.6 153.6 0 0 0 76.8 132.992L435.2 863.146667zM659.584 462.848a42.666667 42.666667 0 0 0 43.093333-73.685333l-123.733333-72.32a128 128 0 0 0-127.445333-1.066667l-129.578667 73.045333a42.666667 42.666667 0 0 0 41.898667 74.325334l129.621333-73.045334a42.666667 42.666667 0 0 1 42.453333 0.341334l123.690667 72.405333zM794.24 813.397333a15.872 15.872 0 0 0 14.72-10.069333l38.698667-98.218667a15.786667 15.786667 0 0 1 8.96-8.917333l98.218666-38.698667a15.786667 15.786667 0 0 0 0-29.482666l-98.261333-38.741334a15.829333 15.829333 0 0 1-8.917333-8.917333l-38.698667-98.176a15.914667 15.914667 0 0 0-14.762667-10.112 15.829333 15.829333 0 0 0-14.72 10.112l-38.741333 98.176a15.914667 15.914667 0 0 1-8.917333 8.96l-98.176 38.698667a15.957333 15.957333 0 0 0-10.112 14.72 15.786667 15.786667 0 0 0 10.112 14.762666l98.176 38.698667a15.829333 15.829333 0 0 1 8.96 8.96l38.741333 98.176a15.872 15.872 0 0 0 14.72 10.069333z"  horiz-adv-x="1024" />
      
      <glyph glyph-name="daohang-AI-tianchong" unicode="&#59110;" d="M435.2 863.146667a153.6 153.6 0 0 0 153.6 0l112.597333-64.981334a8.533333 8.533333 0 0 0 3.626667-10.496l-11.178667-28.586666a28.373333 28.373333 0 0 0-15.957333-15.914667l-33.28-13.141333a17.066667 17.066667 0 0 0-14.805333 1.152L541.866667 781.909333a59.776 59.776 0 0 1-59.776 0 37897.301333 37897.301333 0 0 1-288.938667-169.557333 17.066667 17.066667 0 0 1 0-29.312l279.04-166.613333c26.794667-16 60.16-16.042667 87.04-0.256L689.493333 492.8a17.066667 17.066667 0 0 0 24.533334-8.490667l49.066666-124.501333a28.373333 28.373333 0 0 1 52.821334 0l69.333333 175.872a28.373333 28.373333 0 0 0 16 15.957333l44.757333 17.664c9.173333 3.626667 19.370667-2.389333 19.370667-12.245333v-346.197333a153.6 153.6 0 0 0-76.8-132.992L588.8-95.189333a153.6 153.6 0 0 0-153.6 0l-299.776 173.098666a153.6 153.6 0 0 0-76.8 132.992V557.098667a153.6 153.6 0 0 0 76.8 132.992L435.2 863.146667zM794.24 813.397333a15.872 15.872 0 0 0 14.72-10.069333l38.698667-98.218667a15.786667 15.786667 0 0 1 8.96-8.917333l98.218666-38.698667a15.786667 15.786667 0 0 0 0-29.482666l-98.261333-38.741334a15.829333 15.829333 0 0 1-8.917333-8.917333l-38.698667-98.176a15.914667 15.914667 0 0 0-14.762667-10.112 15.829333 15.829333 0 0 0-14.72 10.112l-38.741333 98.176a15.914667 15.914667 0 0 1-8.917333 8.96l-98.176 38.698667a15.914667 15.914667 0 0 0-10.112 14.72 15.829333 15.829333 0 0 0 10.112 14.762666l98.176 38.698667a15.829333 15.829333 0 0 1 8.96 8.96l38.741333 98.176a15.872 15.872 0 0 0 14.72 10.069333z"  horiz-adv-x="1024" />
      
      <glyph glyph-name="daohang-qita-tianchong" unicode="&#59111;" d="M403.925333 365.482667c49.493333 0 89.6-40.106667 89.6-89.6v-126.293334a215.978667 215.978667 0 1 0-215.936 215.893334h126.293334z m342.485334 0a215.893333 215.893333 0 1 0-215.893334-215.893334v126.293334c0 49.493333 40.106667 89.6 89.6 89.6h126.293334zM277.589333 834.389333a215.893333 215.893333 0 0 0 215.893334-215.893333v-126.378667a89.6 89.6 0 0 0-89.6-89.6h-126.293334a215.936 215.936 0 0 0 0 431.872z m468.821334 0a215.893333 215.893333 0 1 0 0-431.872h-126.293334a89.6 89.6 0 0 0-89.6 89.6V618.453333a215.893333 215.893333 0 0 0 215.893334 215.893334z m0-93.866666a122.112 122.112 0 0 1-122.069334-122.026667v-122.112h122.069334a122.112 122.112 0 0 1 0 244.138667z"  horiz-adv-x="1024" />
      
      <glyph glyph-name="daohang-OAguanli-tianchong" unicode="&#59112;" d="M797.269333 26.666667a46.933333 46.933333 0 1 0 0-93.866667H226.688a46.933333 46.933333 0 1 0 0 93.866667h570.581333zM693.418667 450.645333h-54.912l28.458666 63.061334 26.453334-63.061334zM370.218667 559.530667c24.405333-0.981333 42.069333-9.301333 54.186666-24.192 12.330667-15.232 19.754667-38.4 21.248-70.741334-1.493333-32.853333-8.96-56.448-21.333333-71.936-12.117333-15.146667-29.738667-23.509333-54.101333-24.490666-26.026667 0.981333-44.586667 9.514667-57.173334 24.618666-12.714667 15.402667-20.224 38.912-21.248 71.68 1.493333 32.384 9.216 55.509333 21.973334 70.741334 12.586667 14.933333 30.933333 23.338667 56.448 24.32zM768 835.157333a217.6 217.6 0 0 0 217.6-217.6v-316.501333a217.6 217.6 0 0 0-217.6-217.6H256a217.6 217.6 0 0 0-217.6 217.6V617.557333a217.6 217.6 0 0 0 217.6 217.6h512zM666.624 624.64a38.570667 38.570667 0 0 1-25.088-7.253333c-7.338667-5.461333-12.757333-13.525333-16.64-23.381334l-103.466667-240-0.213333-0.426666-0.128-0.426667c-3.754667-12.330667-4.48-24.021333 0.725333-33.28 5.333333-9.642667 15.530667-13.994667 27.221334-15.189333h0.426666a31.445333 31.445333 0 0 1 23.466667 5.333333c6.442667 4.736 10.752 12.032 13.568 20.650667l0.042667-0.042667 24.746666 54.954667h108.8l23.210667-56.021334c2.986667-7.765333 7.552-14.208 13.994667-18.602666 6.442667-4.394667 14.08-6.4 22.442666-6.4h0.426667l0.384 0.085333c11.946667 1.109333 22.186667 5.504 27.904 14.976 5.504 9.173333 5.290667 20.821333 2.048 33.194667l-0.170667 0.554666-0.256 0.597334-101.973333 240-0.042667 0.128-3.456 6.997333a52.48 52.48 0 0 1-13.397333 16.170667 34.944 34.944 0 0 1-23.466667 7.381333h-1.109333z m-298.154667 0c-46.549333-1.536-83.157333-15.445333-108.373333-42.837333-25.173333-27.306667-37.845333-66.730667-39.381333-116.906667v-0.597333c2.048-49.706667 15.018667-88.832 40.106666-116.053334 25.173333-27.392 61.525333-41.6 107.52-43.648h0.597334c47.018667 1.024 83.925333 14.677333 109.226666 42.112 25.173333 27.306667 37.589333 67.072 38.613334 117.76v0.426667c-1.536 50.176-14.250667 89.6-39.338667 116.906667-22.101333 23.978667-52.906667 37.632-91.434667 41.685333l-16.981333 1.194667h-0.554667z"  horiz-adv-x="1024" />
      
      <glyph glyph-name="daohang-gongshi" unicode="&#59113;" d="M761.088 371.2a238.933333 238.933333 0 1 0 0-477.781333 238.933333 238.933333 0 0 0 0 477.781333zM739.968 866.986667a217.6 217.6 0 0 0 217.6-217.6v-211.157334a46.933333 46.933333 0 1 0-93.866667 0V649.386667c0 68.309333-55.424 123.733333-123.733333 123.733333H246.613333a123.776 123.776 0 0 1-123.733333-123.733333v-530.773334a123.733333 123.733333 0 0 1 123.733333-123.733333h226.474667a46.933333 46.933333 0 0 0 0-93.866667H246.613333a217.6 217.6 0 0 0-217.6 217.6V649.386667a217.6 217.6 0 0 0 217.6 217.6h493.354667z m21.12-589.610667a145.066667 145.066667 0 1 1 0-290.176 145.066667 145.066667 0 0 1 0 290.176z m-8.576-34.090667a42.666667 42.666667 0 0 0 42.666667-42.666666v-54.954667l25.216-23.466667a42.666667 42.666667 0 0 0-58.026667-62.549333l-25.301333 23.466667a85.376 85.376 0 0 0-27.221334 62.549333v54.954667a42.666667 42.666667 0 0 0 42.666667 42.666666z m-79.829333 374.314667a46.933333 46.933333 0 1 0 0-93.866667H313.941333a46.933333 46.933333 0 1 0 0 93.866667h358.741334z"  horiz-adv-x="1024" />
      
      <glyph glyph-name="kuangjia-shaixuan" unicode="&#59115;" d="M551.850667 357.888a149.333333 149.333333 0 0 0 38.314666 99.882667l204.885334 227.669333H232.405333l220.074667-236.245333a149.333333 149.333333 0 0 0 40.064-101.802667v-205.994667a21.333333 21.333333 0 0 1 10.24-18.218666l49.066667-29.952v264.661333z m128-302.72c0-83.285333-91.178667-134.4-162.261334-91.008l-81.536 49.792a149.376 149.376 0 0 0-71.509333 127.445333v205.994667a21.333333 21.333333 0 0 1-5.717333 14.549333L105.386667 634.069333C41.770667 702.293333 90.154667 813.44 183.381333 813.44h659.498667c92.330667 0 141.056-109.354667 79.274667-178.005333l-236.8-263.253334a21.333333 21.333333 0 0 1-5.546667-14.293333v-302.72z"  horiz-adv-x="1024" />
      
      <glyph glyph-name="daohang-gongshi-tianchong" unicode="&#59116;" d="M752.512 243.285333a42.666667 42.666667 0 0 0 42.666667-42.666666v-54.954667l25.216-23.466667a42.666667 42.666667 0 0 0-58.026667-62.549333l-25.301333 23.466667a85.376 85.376 0 0 0-27.221334 62.549333v54.954667a42.666667 42.666667 0 0 0 42.666667 42.666666zM761.088 371.2a238.933333 238.933333 0 1 0 0-477.781333 238.933333 238.933333 0 0 0 0 477.781333z m0-93.824a145.066667 145.066667 0 1 1 0-290.176 145.066667 145.066667 0 0 1 0 290.176zM739.968 866.986667a217.6 217.6 0 0 0 217.6-217.6v-226.346667c0-21.717333-26.026667-34.304-44.842667-23.594667a307.157333 307.157333 0 0 1-399.658666-448.298666c13.909333-19.072 1.408-50.090667-22.229334-50.090667H246.613333a217.6 217.6 0 0 0-217.6 217.6V649.386667a217.6 217.6 0 0 0 217.6 217.6h493.354667zM313.941333 617.557333a46.933333 46.933333 0 1 1 0-93.866666h358.741334a46.933333 46.933333 0 1 1 0 93.866666H313.941333z"  horiz-adv-x="1024" />
      
      <glyph glyph-name="daohang-qita" unicode="&#59118;" d="M403.925333 365.482667c49.493333 0 89.6-40.106667 89.6-89.6v-126.293334a215.978667 215.978667 0 1 0-215.936 215.893334h126.293334z m342.485334 0a215.893333 215.893333 0 1 0-215.893334-215.893334v126.293334c0 49.493333 40.106667 89.6 89.6 89.6h126.293334zM277.589333 271.658667a122.112 122.112 0 1 1 122.069334-122.069334v122.069334H277.589333z m346.752-122.069334a122.112 122.112 0 1 1 122.069334 122.069334h-122.069334v-122.069334zM277.589333 834.389333a215.893333 215.893333 0 0 0 215.893334-215.893333v-126.378667a89.6 89.6 0 0 0-89.6-89.6h-126.293334a215.936 215.936 0 0 0 0 431.872z m468.821334 0a215.893333 215.893333 0 1 0 0-431.872h-126.293334a89.6 89.6 0 0 0-89.6 89.6V618.453333a215.893333 215.893333 0 0 0 215.893334 215.893334z m-468.821334-93.866666a122.112 122.112 0 0 1 0-244.138667h122.069334V618.453333a122.112 122.112 0 0 1-122.069334 122.069334z m468.821334 0a122.112 122.112 0 0 1-122.069334-122.026667v-122.112h122.069334a122.112 122.112 0 0 1 0 244.138667z"  horiz-adv-x="1024" />
      
      <glyph glyph-name="jichu-liulanqi" unicode="&#59107;" d="M512 853.333333c259.2 0 469.333333-210.133333 469.333333-469.333333s-210.133333-469.333333-469.333333-469.333333S42.666667 124.8 42.666667 384 252.8 853.333333 512 853.333333z m0-85.333333a384 384 0 1 1 0-768 384 384 0 0 1 0 768z m150.485333-157.44c46.933333 16.597333 92.586667-29.312 76.032-76.117333l-1.877333-4.650667-93.952-211.456a128.128 128.128 0 0 0-65.024-65.024l-211.456-93.952c-49.92-22.144-101.034667 28.757333-78.848 78.805333l93.952 211.498667a128 128 0 0 0 65.024 65.024l211.498667 93.952 4.693333 1.92z m-181.504-173.866667c-9.685333-4.266667-17.408-11.989333-21.674666-21.674666l-66.986667-150.613334 150.698667 66.901334a42.666667 42.666667 0 0 1 21.76 21.674666l66.901333 150.741334-150.698667-66.986667z"  horiz-adv-x="1024" />
      
      <glyph glyph-name="kuangjia-jiantouzuo" unicode="&#59028;" d="M600.8832 726.016a61.44 61.44 0 0 0 86.8352-86.91712l-240.59904-240.59904a20.48 20.48 0 0 1 0-28.95872l240.59904-240.64a61.44 61.44 0 1 0-86.8352-86.87616l-240.64 240.59904a143.36 143.36 0 0 0 0 202.752L600.8832 726.016z"  horiz-adv-x="1024" />
      
      <glyph glyph-name="daohang-peixun-tianchong" unicode="&#59104;" d="M625.90976 811.2128a147.456 147.456 0 0 0 147.456-147.456v-7.24992a168.05888 168.05888 0 0 0 134.38976-164.57728v-376.66816a167.936 167.936 0 0 0-167.936-167.936H284.13952a167.936 167.936 0 0 0-167.936 167.936V690.42176a120.79104 120.79104 0 0 0 120.832 120.79104h388.83328zM325.2224 344.02304a45.056 45.056 0 0 1 0-90.112h128.08192a45.056 45.056 0 0 1 0 90.112H325.2224z m0 152.9856a45.056 45.056 0 0 1 0-90.112h226.59072a45.056 45.056 0 0 1 0 90.112H325.18144zM237.03552 721.1008a30.72 30.72 0 0 1 0-61.31712l446.2592 0.04096V663.7568c0 31.66208-25.72288 57.344-57.344 57.344H236.99456z"  horiz-adv-x="1024" />
      
      <glyph glyph-name="daohang-peixun" unicode="&#59105;" d="M625.90976 811.2128a147.456 147.456 0 0 0 147.456-147.456v-7.24992a168.05888 168.05888 0 0 0 134.38976-164.57728v-376.66816a167.936 167.936 0 0 0-167.936-167.936H284.22144a167.936 167.936 0 0 0-167.97696 167.936V690.42176a120.79104 120.79104 0 0 0 120.832 120.79104h388.83328zM206.35648 115.3024a77.824 77.824 0 0 1 77.824-77.824h455.63904c42.96704 0 77.824 34.816 77.824 77.824V491.88864a77.824 77.824 0 0 1-76.22656 77.74208H237.03552c-10.60864 0-20.8896 1.55648-30.67904 4.096V115.3024z m246.90688 228.72064a45.09696 45.09696 0 0 0 0-90.112H325.2224a45.056 45.056 0 0 0 0 90.112h128.04096z m98.5088 152.9856a45.056 45.056 0 0 0 0-90.112H325.2224a45.056 45.056 0 0 0 0 90.112h226.5088zM237.03552 721.1008a30.72 30.72 0 0 1 0-61.31712l446.2592 0.04096V663.7568c0 31.66208-25.72288 57.344-57.344 57.344H236.99456z"  horiz-adv-x="1024" />
      
      <glyph glyph-name="kuangjia-jiantouyou" unicode="&#59106;" d="M406.20032 726.016a61.44 61.44 0 0 1-86.87616-86.91712l240.59904-240.59904a20.48 20.48 0 0 0 0-28.95872l-240.59904-240.64a61.44 61.44 0 1 1 86.8352-86.87616l240.64 240.59904a143.36 143.36 0 0 1 0 202.752L406.20032 726.016z"  horiz-adv-x="1024" />
      
      <glyph glyph-name="caiwu" unicode="&#59103;" d="M256 896h512q256 0 256-256v-512q0-256-256-256H256Q0-128 0 128V640Q0 896 256 896zM622.805 644.267a42.667 42.667 0 0 0 66.262-53.76l-84.608-104.235h78.208a42.667 42.667 0 0 0 0-85.333H550.528v-62.379h132.139a42.667 42.667 0 0 0 0-85.333H550.528v-102.571a42.667 42.667 0 0 0-85.333 0v102.57H341.333a42.667 42.667 0 1 0 0 85.334h123.862v62.379H341.333a42.667 42.667 0 1 0 0 85.333h82.902l-87.296 103.637a42.667 42.667 0 0 0 65.28 54.998l112.554-133.675 108.032 133.035z"  horiz-adv-x="1024" />
      
      <glyph glyph-name="jichu-jilianjiantouyou" unicode="&#59101;" d="M392.661333 806.485333l362.496-360.874666a87.04 87.04 0 0 0 18.986667-94.976 87.04 87.04 0 0 0-18.986667-28.245334l-362.496-360.874666a87.850667 87.850667 0 0 0-142.805333 28.288 86.954667 86.954667 0 0 0-6.656 33.365333V744.832C243.2 793.002667 282.453333 832 330.752 832c23.210667 0 45.482667-9.173333 61.909333-25.514667z"  horiz-adv-x="1024" />
      
      <glyph glyph-name="jichu-jilianjiantouzuo" unicode="&#59102;" d="M631.338667 806.485333L268.8 445.610667a86.954667 86.954667 0 0 1 0-123.264l362.496-360.832a87.850667 87.850667 0 0 1 142.805333 28.288c4.394667 10.581333 6.656 21.930667 6.656 33.365333V744.832A87.338667 87.338667 0 0 1 693.248 832c-23.210667 0-45.482667-9.173333-61.909333-25.514667z"  horiz-adv-x="1024" />
      
      <glyph glyph-name="jichu-jiantouyuanxingzuo" unicode="&#59093;" d="M512 853.333333c259.2 0 469.333333-210.133333 469.333333-469.333333s-210.133333-469.333333-469.333333-469.333333S42.666667 124.8 42.666667 384 252.8 853.333333 512 853.333333z m0-85.333333a384 384 0 1 1 0-768 384 384 0 0 1 0 768zM426.624 606.848a42.709333 42.709333 0 0 0 60.373333-60.330667L363.349333 422.826667h388.48a42.666667 42.666667 0 0 0 0-85.333334H370.901333l116.096-116.053333A42.666667 42.666667 0 0 0 426.666667 161.109333L264.106667 323.626667a85.376 85.376 0 0 0 0 120.746666L426.666667 606.805333z"  horiz-adv-x="1024" />
      
      <glyph glyph-name="jichu-jilianjiantouxia" unicode="&#59094;" d="M934.485333 503.338667L573.610667 140.8a87.04 87.04 0 0 0-94.976-18.986667 87.04 87.04 0 0 0-28.245334 18.986667L89.514667 503.338667a87.808 87.808 0 0 0 28.288 142.805333c10.581333 4.394667 21.930667 6.656 33.365333 6.656h721.664c48.170667 0 87.168-39.210667 87.168-87.552 0-23.210667-9.173333-45.482667-25.514667-61.909333z"  horiz-adv-x="1024" />
      
      <glyph glyph-name="jichu-jianhaoyuanquan" unicode="&#59095;" d="M512 853.333333c259.2 0 469.333333-210.133333 469.333333-469.333333s-210.133333-469.333333-469.333333-469.333333S42.666667 124.8 42.666667 384 252.8 853.333333 512 853.333333z m0-85.333333a384 384 0 1 1 0-768 384 384 0 0 1 0 768z m192-338.688a42.666667 42.666667 0 0 0 0-85.333333h-384a42.666667 42.666667 0 0 0 0 85.333333h384z"  horiz-adv-x="1024" />
      
      <glyph glyph-name="jichu-jiantoushang" unicode="&#59096;" d="M170.837333 258.688A42.666667 42.666667 0 0 1 231.253333 198.4l280.746667 280.789333 280.874667-280.746666a42.666667 42.666667 0 0 1 60.330666 60.288l-280.789333 280.789333a85.333333 85.333333 0 0 1-120.746667 0l-280.746666-280.746667z"  horiz-adv-x="1024" />
      
      <glyph glyph-name="jichu-jilianjiantoushang" unicode="&#59097;" d="M934.485333 264.661333l-360.874666 362.496a86.912 86.912 0 0 1-123.264 0l-360.832-362.496a87.808 87.808 0 0 1 28.288-142.805333c10.581333-4.394667 21.930667-6.656 33.365333-6.656h721.664a87.338667 87.338667 0 0 1 87.168 87.552c0 23.210667-9.173333 45.44-25.514667 61.909333z"  horiz-adv-x="1024" />
      
      <glyph glyph-name="jichu-jiantouyou" unicode="&#59098;" d="M395.52 725.162667A42.666667 42.666667 0 0 1 335.189333 664.746667l280.746667-280.746667-280.746667-280.874667a42.666667 42.666667 0 1 1 60.330667-60.330666l280.789333 280.789333a85.333333 85.333333 0 0 1 0 120.746667L395.52 725.12z"  horiz-adv-x="1024" />
      
      <glyph glyph-name="jichu-jiantouxia" unicode="&#59099;" d="M170.837333 509.312A42.666667 42.666667 0 0 0 231.253333 569.6l280.746667-280.789333 280.874667 280.746666a42.666667 42.666667 0 1 0 60.330666-60.288l-280.789333-280.789333a85.333333 85.333333 0 0 0-120.746667 0l-280.746666 280.746667z"  horiz-adv-x="1024" />
      
      <glyph glyph-name="jichu-jiantouzuo1" unicode="&#59100;" d="M628.48 725.162667a42.666667 42.666667 0 0 0 60.330667-60.373334l-280.789334-280.746666 280.746667-280.874667a42.666667 42.666667 0 1 0-60.288-60.330667l-280.789333 280.789334a85.333333 85.333333 0 0 0 0 120.746666l280.746666 280.746667z"  horiz-adv-x="1024" />
      
      <glyph glyph-name="jichu-qujianjiantou" unicode="&#59083;" d="M645.461333 584.704a42.666667 42.666667 0 0 0 59.776 8.234667l213.333334-161.749334c39.082667-29.653333 18.133333-91.989333-30.933334-91.989333H127.744a42.666667 42.666667 0 0 0 0 85.333333h658.346667l-132.394667 100.394667a42.666667 42.666667 0 0 0-8.234667 59.776z"  horiz-adv-x="1024" />
      
      <glyph glyph-name="jichu-jiantouyuanxingyou" unicode="&#59087;" d="M512 853.333333C252.8 853.333333 42.666667 643.2 42.666667 384s210.133333-469.333333 469.333333-469.333333 469.333333 210.133333 469.333333 469.333333S771.2 853.333333 512 853.333333z m0-85.333333a384 384 0 1 0 0-768 384 384 0 0 0 0 768z m85.376-161.152a42.709333 42.709333 0 0 1-60.373333-60.330667l123.648-123.690666H272.213333a42.666667 42.666667 0 0 1 0-85.333334h380.928l-116.096-116.053333A42.666667 42.666667 0 0 1 597.333333 161.109333l162.517334 162.517334c33.28 33.28 33.28 87.381333 0 120.746666L597.333333 606.805333z"  horiz-adv-x="1024" />
      
      <glyph glyph-name="jichu-faqiqunliao" unicode="&#59084;" d="M573.866667 333.994667a149.333333 149.333333 0 0 0 149.333333-149.333334v-153.6a64 64 0 0 0-64-64h-554.666667a64 64 0 0 0-64 64v153.6a149.333333 149.333333 0 0 0 149.333334 149.333334h384z m-384-85.333334a64 64 0 0 1-64-64v-132.266666h512v132.266666a64 64 0 0 1-64 64h-384z m635.178666 383.36a42.666667 42.666667 0 0 0 42.666667-42.666666V512h77.312a42.666667 42.666667 0 0 0 0-85.333333h-77.312v-76.202667a42.666667 42.666667 0 0 0-85.333333 0V426.666667H706.133333a42.666667 42.666667 0 1 0 0 85.333333h76.245334V589.354667a42.666667 42.666667 0 0 0 42.666666 42.666666zM381.866667 800.981333a213.333333 213.333333 0 1 0 0-426.666666 213.333333 213.333333 0 0 0 0 426.666666z m0-85.333333a128 128 0 1 1 0-256 128 128 0 0 1 0 256z"  horiz-adv-x="1024" />
      
      <glyph glyph-name="jichu-miandarao" unicode="&#59085;" d="M82.688 839.381333a42.666667 42.666667 0 0 0 60.288-1.066666l799.445333-827.776a42.666667 42.666667 0 0 0-61.44-59.306667l-91.093333 94.378667h-116.309333a181.418667 181.418667 0 0 0-352.512 0H157.909333a59.733333 59.733333 0 0 0-57.002666 77.653333l38.869333 123.946667V450.133333c0 75.562667 23.125333 145.706667 62.677333 203.776L81.621333 779.050667a42.666667 42.666667 0 0 0 1.066667 60.330666zM411.392 45.653333a95.957333 95.957333 0 0 1 171.861333 0H411.392zM263.424 590.805333a275.797333 275.797333 0 0 1-38.314667-140.629333v-216.106667l-32.384-103.125333h514.773334L263.424 590.805333zM550.741333 861.056c23.552 0 42.666667-19.157333 42.666667-42.666667v-17.066666a362.88 362.88 0 0 0 271.701333-351.146667v-204.373333l25.258667-102.485334-110.592 117.845334v189.013333A277.333333 277.333333 0 0 1 372.48 695.168L312.448 759.082667a360.96 360.96 0 0 0 93.226667 40.661333V818.346667c0 23.552 19.114667 42.666667 42.666666 42.666666h102.4z"  horiz-adv-x="1024" />
      
      <glyph glyph-name="jichu-ketuozhuai" unicode="&#59086;" d="M326.698667 153.6a76.8 76.8 0 1 0 0-153.6 76.8 76.8 0 0 0 0 153.6z m370.602666 0a76.8 76.8 0 1 0 0-153.6 76.8 76.8 0 0 0 0 153.6z m-370.602666 307.2a76.8 76.8 0 1 0 0-153.6 76.8 76.8 0 0 0 0 153.6z m370.602666 0a76.8 76.8 0 1 0 0-153.6 76.8 76.8 0 0 0 0 153.6zM326.698667 768a76.8 76.8 0 1 0 0-153.6 76.8 76.8 0 0 0 0 153.6z m370.602666 0a76.8 76.8 0 1 0 0-153.6 76.8 76.8 0 0 0 0 153.6z"  horiz-adv-x="1024" />
      
      <glyph glyph-name="jichu-gengduo" unicode="&#59088;" d="M777.301333 307.2a76.8 76.8 0 1 0 0 153.6 76.8 76.8 0 0 0 0-153.6zM512 307.2a76.8 76.8 0 1 0 0 153.6 76.8 76.8 0 0 0 0-153.6zM169.898667 384a76.8 76.8 0 1 1 153.6 0 76.8 76.8 0 0 1-153.6 0z"  horiz-adv-x="1024" />
      
      <glyph glyph-name="jichu-dianzan" unicode="&#59089;" d="M453.546667 848.341333c37.376 10.837333 93.184 5.674667 134.784-32.256 44.074667-40.192 62.165333-107.306667 42.538666-200.064-1.877333-8.704-6.528-30.122667-11.477333-52.224h205.397333c39.722667 0 71.04-11.776 93.610667-33.706666 18.218667-17.749333 29.952-41.258667 37.632-65.194667 7.808-24.32 12.373333-51.925333 14.464-80.64 4.138667-57.386667-1.237333-123.818667-14.08-187.349333-12.8-63.402667-33.536-126.592-61.738667-176.768-27.050667-48.170667-66.645333-94.293333-121.429333-104.704a42.965333 42.965333 0 0 0-7.978667-0.768H167.381333a115.285333 115.285333 0 0 0-115.2 115.2V418.133333c0 63.658667 51.626667 115.2 115.2 115.285334h7.253334l16.213333 0.042666h16.938667c1.962667 0 5.461333-0.128 8.533333-0.213333V533.333333c37.973333 0 58.709333 19.626667 77.824 44.629334 38.272 50.133333 51.157333 91.52 60.8 117.546666a448 448 0 0 1 11.861333 38.826667c3.498667 12.8 7.424 27.690667 12.586667 41.301333 11.178667 29.44 31.061333 60.245333 74.112 72.704z m77.312-95.317333c-16.512 15.018667-40.362667 17.194667-53.632 13.354667-7.594667-2.176-12.117333-5.461333-18.048-21.034667-3.370667-8.874667-6.186667-19.2-10.026667-33.365333-3.626667-13.44-8.021333-29.44-14.208-46.122667-9.216-24.832-25.813333-77.994667-72.96-139.690667-14.250667-18.645333-34.389333-41.472-63.573333-57.642666L296.490667 0H759.893333c16.213333 4.394667 37.973333 21.930667 60.416 61.866667 22.570667 40.192 40.832 94.293333 52.48 151.893333 11.562667 57.514667 16.085333 116.010667 12.544 164.266667-1.706667 24.149333-5.418667 44.672-10.581333 60.757333-5.248 16.426667-11.221333 25.6-15.786667 30.08-3.712 3.541333-12.117333 9.557333-34.176 9.557333h-258.986666a42.709333 42.709333 0 0 0-41.429334 52.906667c5.888 23.893333 19.498667 85.845333 22.997334 102.357333 15.872 75.050667-2.56 106.538667-16.512 119.296z m-393.386667-723.2c0-16.341333 13.397333-29.824 29.909333-29.824H211.2l1.834667 448.085333h-0.170667l-5.546667 0.042667-16.384 0.042667h-23.296a30.08 30.08 0 0 1-30.122666-29.994667V29.866667z"  horiz-adv-x="1024" />
      
      <glyph glyph-name="jichu-biaoqing" unicode="&#59090;" d="M512 853.333333c259.2 0 469.333333-210.133333 469.333333-469.333333s-210.133333-469.333333-469.333333-469.333333S42.666667 124.8 42.666667 384 252.8 853.333333 512 853.333333z m0-85.333333a384 384 0 1 1 0-768 384 384 0 0 1 0 768z m160.64-524.458667a42.666667 42.666667 0 1 0 64.213333-56.149333A298.154667 298.154667 0 0 0 512 85.290667a298.197333 298.197333 0 0 0-224.853333 102.101333 42.666667 42.666667 0 0 0 64.256 56.149333A212.778667 212.778667 0 0 1 512 170.624c64 0 121.472 28.16 160.64 72.917333z m-332.416 349.013334c30.933333 0 56.021333-46.677333 56.021333-104.277334C396.245333 430.677333 371.2 384 340.224 384c-30.976 0-56.021333 46.677333-56.021333 104.277333 0 57.6 25.045333 104.32 56.021333 104.32z m340.992 0c30.933333 0 56.021333-46.677333 56.021333-104.277334 0-57.6-25.088-104.277333-56.021333-104.277333s-56.021333 46.677333-56.021333 104.277333c0 57.6 25.088 104.32 56.021333 104.32z"  horiz-adv-x="1024" />
      
      <glyph glyph-name="jichu-caidanzhankai" unicode="&#59091;" d="M813.226667 789.333333a170.666667 170.666667 0 0 0 170.666666-170.666666v-469.333334a170.666667 170.666667 0 0 0-170.666666-170.666666h-597.333334a170.666667 170.666667 0 0 0-170.666666 170.666666v469.333334a170.666667 170.666667 0 0 0 170.666666 170.666666h597.333334z m-597.333334-85.333333a85.333333 85.333333 0 0 1-85.333333-85.333333v-469.333334a85.333333 85.333333 0 0 1 85.333333-85.333333h59.008v640H215.893333z m144.341334-640H813.226667a85.333333 85.333333 0 0 1 85.333333 85.333333v469.333334a85.333333 85.333333 0 0 1-85.333333 85.333333H360.234667v-640z"  horiz-adv-x="1024" />
      
      <glyph glyph-name="jichu-fuzhi" unicode="&#59092;" d="M783.146667 667.52a170.666667 170.666667 0 0 0 170.666666-170.666667v-384a170.666667 170.666667 0 0 0-170.666666-170.666666h-384a170.666667 170.666667 0 0 0-170.666667 170.666666v384a170.666667 170.666667 0 0 0 170.666667 170.666667h384z m-384-85.333333a85.333333 85.333333 0 0 1-85.333334-85.333334v-384a85.333333 85.333333 0 0 1 85.333334-85.333333h384a85.333333 85.333333 0 0 1 85.333333 85.333333v384a85.333333 85.333333 0 0 1-85.333333 85.333334h-384z m359.68 243.456a42.666667 42.666667 0 0 0 0-84.906667l-4.352-0.256H347.52a192 192 0 0 1-192-192v-433.024a42.666667 42.666667 0 0 0-85.333333 0V548.522667a277.333333 277.333333 0 0 0 277.333333 277.333333h406.954667l4.309333-0.213333z"  horiz-adv-x="1024" />
      
      <glyph glyph-name="jichu-shezhi" unicode="&#59066;" d="M512 554.666667a170.666667 170.666667 0 1 0 0-341.333334 170.666667 170.666667 0 0 0 0 341.333334z m0-85.333334a85.333333 85.333333 0 1 1 0-170.666666 85.333333 85.333333 0 0 1 0 170.666666zM426.666667 832a170.666667 170.666667 0 0 0 170.666666 0l260.010667-150.101333c52.778667-30.464 85.333333-86.869333 85.333333-147.84v-300.16c0-60.970667-32.554667-117.333333-85.333333-147.84L597.333333-64a170.666667 170.666667 0 0 0-170.666666 0l-260.010667 150.058667a170.752 170.752 0 0 0-85.333333 147.84V534.058667c0 61.013333 32.554667 117.333333 85.333333 147.84L426.666667 832z m128-73.941333a85.333333 85.333333 0 0 1-85.333334 0L209.322667 608c-26.368-15.274667-42.666667-43.434667-42.666667-73.941333v-300.16c0-30.464 16.298667-58.666667 42.666667-73.898667L469.333333 9.898667a85.333333 85.333333 0 0 1 85.333334 0l260.010666 150.101333c26.368 15.232 42.666667 43.434667 42.666667 73.898667V534.058667c0 30.506667-16.298667 58.666667-42.666667 73.941333L554.666667 758.058667z"  horiz-adv-x="1024" />
      
      <glyph glyph-name="jichu-bangzhu" unicode="&#59067;" d="M896 384a384 384 0 1 1-768 0 384 384 0 0 1 768 0z m85.333333 0c0-259.2-210.133333-469.333333-469.333333-469.333333S42.666667 124.8 42.666667 384 252.8 853.333333 512 853.333333s469.333333-210.133333 469.333333-469.333333zM504.746667 201.258667c14.805333 0 28.672-4.437333 39.808-15.530667 10.069333-10.112 15.573333-23.04 15.573333-38.314667 0-16-5.546667-29.141333-16.64-39.338666-10.666667-9.770667-23.466667-15.274667-38.784-15.274667-15.36 0-28.117333 5.504-38.826667 15.274667l-0.213333 0.298666a52.48 52.48 0 0 0-15.530667 39.04c0 13.056 3.413333 24.832 11.861334 34.517334l3.925333 4.010666a52.48 52.48 0 0 0 38.826667 15.317334zM516.266667 668.970667c50.730667 0 92.16-13.525333 124.032-42.965334l5.546666-5.376c26.752-27.477333 40.192-64.170667 40.192-109.184 0-36.266667-10.538667-68.138667-30.933333-95.018666l-0.170667-0.298667c-8.192-9.813333-29.44-30.165333-63.146666-60.032l-0.085334-0.085333c-16.341333-14.08-27.136-27.178667-34.218666-39.936l-0.128-0.213334a98.730667 98.730667 0 0 1-13.397334-51.712v-26.197333h-78.506666v26.197333c0 26.368 4.821333 49.962667 14.677333 70.528 11.562667 24.746667 38.101333 54.869333 79.573333 91.733334 12.373333 12.373333 20.864 20.906667 24.96 26.453333l0.170667 0.170667c14.336 17.92 21.162667 36.096 21.162667 55.338666 0 28.928-8.618667 50.389333-23.594667 65.365334l-0.085333 0.128c-15.573333 16.213333-38.357333 24.277333-69.12 24.277333-36.437333 0-61.952-11.52-78.378667-34.133333l-0.213333-0.256c-15.36-19.498667-23.466667-46.634667-23.466667-83.029334v-8.533333H333.354667v8.533333c0 55.338667 15.104 100.693333 47.701333 134.912 32.64 35.84 78.122667 53.333333 135.210667 53.333334z"  horiz-adv-x="1024" />
      
      <glyph glyph-name="jichu-rili" unicode="&#59068;" d="M699.52 839.338667a42.666667 42.666667 0 0 0 42.666667-42.666667v-50.816H789.333333a170.666667 170.666667 0 0 0 170.666667-170.666667v-475.861333a170.666667 170.666667 0 0 0-170.666667-170.666667h-554.666666a170.666667 170.666667 0 0 0-170.666667 170.666667V575.146667a170.666667 170.666667 0 0 0 170.666667 170.666666h50.858666V796.672a42.666667 42.666667 0 1 0 85.333334 0v-50.816h286.037333V796.672a42.666667 42.666667 0 0 0 42.666667 42.666667zM149.333333 99.328a85.333333 85.333333 0 0 1 85.333334-85.333333h554.666666a85.333333 85.333333 0 0 1 85.333334 85.333333v275.584h-725.333334v-275.626667z m85.333334 561.194667a85.333333 85.333333 0 0 1-85.333334-85.333334v-114.944h725.333334V575.146667a85.333333 85.333333 0 0 1-85.333334 85.333333h-47.146666v-43.008a42.666667 42.666667 0 1 0-85.333334 0V660.522667H370.858667v-43.008a42.666667 42.666667 0 1 0-85.333334 0V660.522667H234.666667z"  horiz-adv-x="1024" />
      
      <glyph glyph-name="jichu-biaoge" unicode="&#59069;" d="M789.333333 832a170.666667 170.666667 0 0 0 170.666667-170.666667v-554.666666a170.666667 170.666667 0 0 0-170.666667-170.666667h-554.666666a170.666667 170.666667 0 0 0-170.666667 170.666667v554.666666a170.666667 170.666667 0 0 0 170.666667 170.666667h554.666666z m-236.373333-810.666667h236.373333a85.333333 85.333333 0 0 1 85.333334 85.333334v239.018666h-321.706667V21.333333z m-403.626667 85.333334a85.333333 85.333333 0 0 1 85.333334-85.333334h232.96v324.352H149.333333V106.666667z m403.626667 324.352h321.706667V661.333333a85.333333 85.333333 0 0 1-85.333334 85.333334h-236.373333v-315.648zM234.666667 746.666667a85.333333 85.333333 0 0 1-85.333334-85.333334v-230.314666h318.293334V746.666667H234.666667z"  horiz-adv-x="1024" />
      
      <glyph glyph-name="jichu-jiahao" unicode="&#59070;" d="M510.421333 780.373333c23.552-0.042667 42.666667-19.2 42.666667-42.752v-311.893333h312.576a42.666667 42.666667 0 0 0 0-85.333333h-312.576v-310.058667a42.666667 42.666667 0 0 0-85.333333 0v310.058667H158.378667a42.666667 42.666667 0 1 0 0 85.333333h309.333333v311.893333a42.666667 42.666667 0 0 0 42.666667 42.709334z"  horiz-adv-x="1024" />
      
      <glyph glyph-name="jichu-shaixuan" unicode="&#59071;" d="M562.432 353.024c0 32.426667 12.330667 63.701333 34.432 87.381333l279.04 298.88H148.138667l297.429333-297.386666c24.021333-24.021333 37.461333-56.618667 37.461333-90.581334v-237.184a42.666667 42.666667 0 0 1 15.616-32.981333l63.744-52.309333v324.181333z m85.333333-324.138667c0-72.064-83.754667-111.658667-139.434666-65.962666l-63.744 52.224a128.042667 128.042667 0 0 0-46.848 98.986666v237.226667a42.666667 42.666667 0 0 1-12.501334 30.122667L87.893333 678.954667c-53.76 53.76-15.701333 145.664 60.330667 145.664h727.637333c74.624 0 113.322667-89.002667 62.421334-143.530667l-278.997334-298.922667c-7.381333-7.893333-11.477333-18.346667-11.477333-29.141333v-324.138667z"  horiz-adv-x="1024" />
      
      <glyph glyph-name="jichu-liulan" unicode="&#59072;" d="M512 576a192 192 0 1 0 0-384 192 192 0 0 0 0 384z m0-85.333333a106.666667 106.666667 0 1 1 0-213.333334 106.666667 106.666667 0 0 1 0 213.333334zM509.738667 740.992c229.845333 0 385.706667-186.496 449.408-299.392 18.56-32.896 19.626667-72.874667 2.432-106.752-59.306667-116.693333-210.56-307.84-451.84-307.84-242.261333 0-390.826667 192.597333-448.042667 309.418667a112.810667 112.810667 0 0 0 2.346667 103.68c61.610667 112.981333 214.912 300.885333 445.696 300.885333z m0-85.333333c-182.485333-0.042667-313.6-151.594667-370.773334-256.426667a27.477333 27.477333 0 0 1-0.64-25.301333c52.053333-106.368 178.389333-261.589333 371.413334-261.589334 192.682667 0 321.578667 154.581333 375.722666 261.12a27.605333 27.605333 0 0 1-0.64 26.197334c-59.306667 105.045333-192.896 256-375.082666 256z"  horiz-adv-x="1024" />
      
      <glyph glyph-name="jichu-jiantouzuo" unicode="&#59073;" d="M628.48 725.162667a42.666667 42.666667 0 0 0 60.330667-60.373334l-280.789334-280.746666 280.746667-280.874667a42.666667 42.666667 0 1 0-60.288-60.330667l-280.789333 280.789334a85.333333 85.333333 0 0 0 0 120.746666l280.746666 280.746667z"  horiz-adv-x="1024" />
      
      <glyph glyph-name="jichu-sousuo" unicode="&#59074;" d="M469.333333 853.333333c235.648 0 426.666667-191.018667 426.666667-426.666666a424.832 424.832 0 0 0-95.872-269.397334l154.325333-154.325333a42.666667 42.666667 0 0 0-60.330666-60.330667l-154.197334 154.197334A424.874667 424.874667 0 0 0 469.333333 0C233.685333 0 42.666667 191.018667 42.666667 426.666667S233.685333 853.333333 469.333333 853.333333z m0-85.333333a341.333333 341.333333 0 1 1 0-682.666667 341.333333 341.333333 0 0 1 0 682.666667z"  horiz-adv-x="1024" />
      
      <glyph glyph-name="jichu-bofang" unicode="&#59075;" d="M458.453333 839.424L949.76 502.613333c69.973333-48.085333 85.76-141.141333 35.285333-207.829333a152.917333 152.917333 0 0 0-36.522666-34.474667l-493.610667-332.544c-70.4-47.445333-167.850667-31.488-217.6 35.626667a144.128 144.128 0 0 0-28.672 86.698667l2.346667 669.44C211.413333 801.706667 281.685333 867.968 367.957333 867.541333a161.450667 161.450667 0 0 0 90.496-28.16z"  horiz-adv-x="1024" />
      
      <glyph glyph-name="jichu-buju" unicode="&#59076;" d="M813.226667 789.333333a170.666667 170.666667 0 0 0 170.666666-170.666666v-469.333334a170.666667 170.666667 0 0 0-170.666666-170.666666h-597.333334a170.666667 170.666667 0 0 0-170.666666 170.666666v469.333334a170.666667 170.666667 0 0 0 170.666666 170.666666h597.333334z m-597.333334-85.333333a85.333333 85.333333 0 0 1-85.333333-85.333333v-469.333334a85.333333 85.333333 0 0 1 85.333333-85.333333h59.008v640H215.893333z m144.341334-235.392V64H813.226667a85.333333 85.333333 0 0 1 85.333333 85.333333v319.274667H360.234667z m0 85.333333H898.56V618.666667a85.333333 85.333333 0 0 1-85.333333 85.333333H360.234667v-150.058667z"  horiz-adv-x="1024" />
      
      <glyph glyph-name="jichu-jiezhishijian" unicode="&#59077;" d="M603.946667 28.458667v-23.722667c0-52.352-41.386667-94.805333-92.501334-94.805333-51.157333 0-92.586667 42.453333-92.586666 94.805333v23.722667h185.088zM517.248 858.026667c45.141333 0 83.882667-27.861333 100.821333-67.669334 112.085333-47.786667 169.472-172.757333 172.117334-314.368l0.085333-6.698666v-86.741334a23.552 23.552 0 0 1 19.882667-23.722666c75.52-11.093333 128.085333-82.56 117.76-160-10.837333-70.570667-69.888-122.410667-139.178667-123.050667H238.848c-70.698667-1.109333-131.498667 51.072-142.762667 122.581333-10.282667 77.397333 42.325333 148.864 117.76 160a23.466667 23.466667 0 0 1 19.84 21.333334l0.085334 2.389333V478.805333c0 142.165333 61.013333 263.509333 170.666666 310.741334A110.165333 110.165333 0 0 0 500.949333 857.984l4.693334 0.085333h11.562666z m7.936-123.264h-13.738667c-120.106667 0-199.338667-98.133333-201.728-248.96l-0.042666-7.04v-96a99.370667 99.370667 0 0 0-80.384-98.730667l-4.309334-0.725333c-34.090667-4.992-58.538667-38.272-53.930666-73.130667 5.248-33.28 32.042667-57.301333 64.256-58.453333l3.584-0.085334h546.986666c32.810667-0.810667 61.738667 23.936 66.858667 57.216 4.736 35.456-17.962667 67.712-50.090667 74.325334l-3.370666 0.597333a99.2 99.2 0 0 0-84.821334 94.464V468.906667c-1.024 155.178667-71.466667 256.981333-185.685333 265.685333l-3.584 0.256z"  horiz-adv-x="1024" />
      
      <glyph glyph-name="jichu-fujian" unicode="&#59078;" d="M896.725333 730.581333a217.173333 217.173333 0 0 0 49.493334-74.496 229.418667 229.418667 0 0 0 0-169.301333 217.173333 217.173333 0 0 0-49.493334-74.496l-354.346666-351.573333c-22.186667-22.186667-49.493333-40.704-81.92-55.509334a293.12 293.12 0 0 0-102.656-25.898666 289.237333 289.237333 0 0 0-110.592 14.762666c-37.589333 12.373333-72.448 34.56-104.533334 66.645334-31.445333 31.445333-53.333333 65.536-65.706666 102.229333a281.6 281.6 0 0 0-14.805334 109.653333 295.893333 295.893333 0 0 0 25.472 102.698667 272.213333 272.213333 0 0 0 55.04 81.408l314.581334 311.808c5.546667 5.546667 13.738667 6.954667 24.533333 4.181333 10.794667-2.773333 18.944-6.954667 24.490667-12.501333 4.949333-5.546667 8.96-13.738667 12.032-24.533333 3.072-10.794667 1.877333-18.944-3.669334-24.490667L200.96 400.213333c-16.64-16.64-30.506667-36.053333-41.642667-58.282666a186.069333 186.069333 0 0 1-8.32-148.053334c9.258667-25.898667 25.898667-50.858667 49.962667-74.922666 21.589333-21.589333 45.482667-36.864 71.68-45.824 26.24-8.96 52.309333-12.629333 78.208-11.093334a223.530667 223.530667 0 0 1 74.026667 17.152 186.026667 186.026667 0 0 1 60.16 39.765334l353.408 350.677333c16.64 16.64 28.544 33.92 35.626666 51.797333 7.082667 17.92 10.496 35.626667 10.197334 53.205334a122.112 122.112 0 0 1-12.501334 51.370666 169.088 169.088 0 0 1-33.28 46.250667c-26.538667 25.898667-56.32 38.101333-89.301333 36.522667-33.024-1.536-66.133333-18.944-99.498667-52.266667l-319.146666-317.354667c-14.208-14.165333-21.162667-29.909333-20.864-47.189333 0.298667-17.28 6.016-31.445333 17.109333-42.538667 13.568-13.610667 29.141333-19.157333 46.72-16.64 17.578667 2.432 31.957333 9.216 43.050667 20.309334l289.578666 287.744c5.546667 5.546667 13.738667 6.954667 24.533334 4.181333 10.794667-2.773333 18.986667-6.954667 24.533333-12.501333 5.546667-5.546667 9.856-13.696 12.928-24.490667 3.114667-10.794667 1.877333-18.986667-3.712-24.533333l-290.517333-287.744c-22.186667-22.186667-43.477333-37.632-63.829334-46.250667-20.352-8.661333-39.466667-12.501333-57.344-11.562667a112.810667 112.810667 0 0 0-49.962666 14.336 211.029333 211.029333 0 0 0-42.581334 31.445334 148.266667 148.266667 0 0 0-28.202666 37.930666 122.965333 122.965333 0 0 0-14.378667 50.901334c-1.194667 18.474667 2.005333 38.229333 9.728 59.221333 7.68 20.949333 22.656 42.24 44.885333 63.829333 11.093333 11.093333 20.949333 21.290667 29.610667 30.549334 7.381333 7.978667 14.336 15.104 20.821333 21.248l10.666667 10.197333 258.133333 257.194667a265.941333 265.941333 0 0 0 72.618667 52.309333 217.002667 217.002667 0 0 0 80 21.76 197.674667 197.674667 0 0 0 80.042667-11.136c26.24-9.258667 50.432-25.002667 72.618666-47.189333z"  horiz-adv-x="1024" />
      
      <glyph glyph-name="jichu-jiacu" unicode="&#59079;" d="M853.333333 230.954667v-37.717334C853.333333 62.976 741.589333-42.666667 603.818667-42.666667H170.666667V810.666667h396.8c138.496 0 252.288-103.509333 257.621333-234.496l0.256-8.874667c0-65.237333-28.8-124.032-74.922667-165.632 61.610667-34.517333 102.869333-98.048 102.869334-170.709333z m-361.258666 198.912h90.922666c80.256 0 145.493333 61.525333 145.493334 137.514666 0 2.645333 0 2.645333-0.128 5.333334-3.328 81.834667-74.453333 146.432-160.853334 146.432H267.52v-289.408l224.64-0.213334v0.341334h-0.128z m-224.64-380.885334h336.426666c84.309333 0 152.576 64.597333 152.576 144.256v37.717334c0 58.88-50.474667 106.666667-112.853333 106.794666l-376.149333 0.469334v-289.28z"  horiz-adv-x="1024" />
      
      <glyph glyph-name="jichu-wenjian" unicode="&#59080;" d="M372.906667 834.773333c30.933333 0 60.074667-14.549333 78.634666-39.296l77.909334-103.893333a12.970667 12.970667 0 0 1 10.368-5.205333h287.573333A153.941333 153.941333 0 0 0 981.333333 532.437333v-445.226666a154.026667 154.026667 0 0 0-153.941333-154.026667H196.608A154.026667 154.026667 0 0 0 42.666667 87.253333V680.832a153.984 153.984 0 0 0 153.941333 153.941333H372.906667zM128 392.32v-305.109333c0-37.888 30.72-68.693333 68.608-68.693334h630.784A68.693333 68.693333 0 0 1 896 87.253333v305.066667H128z m68.608 357.12C158.72 749.44 128 718.72 128 680.832v-203.221333h768V532.48c0 37.888-30.72 68.608-68.608 68.608h-287.573333a98.346667 98.346667 0 0 0-78.634667 39.338667L383.232 744.234667a12.970667 12.970667 0 0 1-10.368 5.205333H196.693333z"  horiz-adv-x="1024" />
      
      <glyph glyph-name="jichu-bianji" unicode="&#59081;" d="M897.152 32.682667a42.666667 42.666667 0 0 0 0-85.333334H126.848a42.666667 42.666667 0 0 0 0 85.333334h770.304z m0 143.317333a42.666667 42.666667 0 0 0 0-85.333333h-319.744a42.666667 42.666667 0 0 0 0 85.333333h319.744z m-388.266667 612.992a85.333333 85.333333 0 0 0 119.978667 12.629333l79.616-64.426666a85.333333 85.333333 0 0 0 12.586667-120.021334L338.688 144.896a128.128 128.128 0 0 0-90.325333-47.061333l-83.328-5.973334-5.034667-0.170666a51.2 51.2 0 0 0-48.469333 39.253333l-0.938667 4.906667-11.52 82.773333a128.085333 128.085333 0 0 0 27.392 98.133333l382.378667 472.234667zM192.725333 263.082667a42.752 42.752 0 0 1-9.130666-32.725334l7.125333-51.2 51.498667 3.754667c11.776 0.853333 22.656 6.528 30.08 15.701333l382.421333 472.192-79.573333 64.469334-382.421334-472.192z"  horiz-adv-x="1024" />
      
      <glyph glyph-name="jichu-jianpanshuru" unicode="&#59082;" d="M512 853.333333c259.2 0 469.333333-210.133333 469.333333-469.333333s-210.133333-469.333333-469.333333-469.333333S42.666667 124.8 42.666667 384 252.8 853.333333 512 853.333333z m0-85.333333a384 384 0 1 1 0-768 384 384 0 0 1 0 768z m137.088-520.917333a42.666667 42.666667 0 0 0 0-85.333334H378.88a42.666667 42.666667 0 0 0 0 85.333334h270.165333zM298.666667 405.333333a42.666667 42.666667 0 0 0 42.666666-42.666666v-21.333334a42.666667 42.666667 0 0 0-42.666666-42.666666h-21.333334a42.666667 42.666667 0 0 0-42.666666 42.666666v21.333334a42.666667 42.666667 0 0 0 42.666666 42.666666H298.666667z m149.333333 0a42.666667 42.666667 0 0 0 42.666667-42.666666v-21.333334a42.666667 42.666667 0 0 0-42.666667-42.666666H426.666667a42.666667 42.666667 0 0 0-42.666667 42.666666v21.333334a42.666667 42.666667 0 0 0 42.666667 42.666666h21.333333z m149.333333 0a42.666667 42.666667 0 0 0 42.666667-42.666666v-21.333334a42.666667 42.666667 0 0 0-42.666667-42.666666h-21.333333a42.666667 42.666667 0 0 0-42.666667 42.666666v21.333334a42.666667 42.666667 0 0 0 42.666667 42.666666h21.333333z m149.333334 0a42.666667 42.666667 0 0 0 42.666666-42.666666v-21.333334a42.666667 42.666667 0 0 0-42.666666-42.666666H725.333333a42.666667 42.666667 0 0 0-42.666666 42.666666v21.333334a42.666667 42.666667 0 0 0 42.666666 42.666666h21.333334zM298.666667 554.666667a42.666667 42.666667 0 0 0 42.666666-42.666667v-21.333333a42.666667 42.666667 0 0 0-42.666666-42.666667h-21.333334a42.666667 42.666667 0 0 0-42.666666 42.666667V512a42.666667 42.666667 0 0 0 42.666666 42.666667H298.666667z m149.333333 0a42.666667 42.666667 0 0 0 42.666667-42.666667v-21.333333a42.666667 42.666667 0 0 0-42.666667-42.666667H426.666667a42.666667 42.666667 0 0 0-42.666667 42.666667V512a42.666667 42.666667 0 0 0 42.666667 42.666667h21.333333zM597.333333 554.666667a42.666667 42.666667 0 0 0 42.666667-42.666667v-21.333333a42.666667 42.666667 0 0 0-42.666667-42.666667h-21.333333a42.666667 42.666667 0 0 0-42.666667 42.666667V512a42.666667 42.666667 0 0 0 42.666667 42.666667h21.333333z m149.333334 0a42.666667 42.666667 0 0 0 42.666666-42.666667v-21.333333a42.666667 42.666667 0 0 0-42.666666-42.666667H725.333333a42.666667 42.666667 0 0 0-42.666666 42.666667V512a42.666667 42.666667 0 0 0 42.666666 42.666667h21.333334z"  horiz-adv-x="1024" />
      
      <glyph glyph-name="jichu-pinglun" unicode="&#59018;" d="M646.869333 407.893333a42.666667 42.666667 0 0 0 58.794667-61.866666c-80.213333-76.202667-163.2-95.146667-235.52-82.944-69.632 11.818667-124.586667 51.712-154.88 85.418666a42.666667 42.666667 0 0 0 63.616 56.917334c20.266667-22.570667 58.794667-50.261333 105.557333-58.197334 44.117333-7.466667 100.48 1.749333 162.432 60.672zM768 830.122667a213.333333 213.333333 0 0 0 213.333333-213.376v-341.333334a213.376 213.376 0 0 0-213.333333-213.333333h-205.354667l-168.533333-115.2a51.2 51.2 0 0 0-80.085333 42.325333v72.874667H256a213.333333 213.333333 0 0 0-213.034667 202.325333L42.666667 275.413333v341.333334a213.333333 213.333333 0 0 0 213.333333 213.333333h512z m-512-85.333334a128 128 0 0 1-128-128.042666v-341.333334l0.170667-6.613333A128 128 0 0 1 256 147.413333h92.16a51.2 51.2 0 0 0 51.2-51.2v-42.368l115.2 78.677334a85.333333 85.333333 0 0 0 48.085333 14.890666H768l6.570667 0.170667A128.042667 128.042667 0 0 1 896 275.456V616.746667a128 128 0 0 1-128 128H256z"  horiz-adv-x="1024" />
      
      <glyph glyph-name="jichu-maikefeng" unicode="&#59019;" d="M232.533333 291.925333a42.666667 42.666667 0 0 0 58.197334-16.085333c42.666667-75.306667 124.928-126.037333 221.269333-126.037333 95.744 0 178.474667 51.2 221.354667 126.165333a42.666667 42.666667 0 0 0 74.069333-42.325333c-51.328-89.770667-144.128-153.216-252.757333-166.528v-107.648a42.666667 42.666667 0 0 0-85.333334 0v107.648c-108.8 13.184-201.557333 76.202667-252.842666 166.656a42.666667 42.666667 0 0 0 16.085333 58.154666zM512 851.2a208.810667 208.810667 0 0 0 208.768-208.810667v-184.533333a208.768 208.768 0 1 0-417.536 0V642.389333a208.810667 208.810667 0 0 0 208.810667 208.810667z m0-85.333333a123.477333 123.477333 0 0 1-123.434667-123.477334v-184.533333a123.477333 123.477333 0 0 1 246.869334 0V642.389333a123.477333 123.477333 0 0 1-123.392 123.477334z"  horiz-adv-x="1024" />
      
      <glyph glyph-name="jichu-tongxunlu-1" unicode="&#59020;" d="M573.866667 333.994667a149.333333 149.333333 0 0 0 149.333333-149.333334v-153.6a64 64 0 0 0-64-64h-554.666667a64 64 0 0 0-64 64v153.6a149.333333 149.333333 0 0 0 149.333334 149.333334h384z m-384-85.333334a64 64 0 0 1-64-64v-132.266666h512v132.266666a64 64 0 0 1-64 64h-384z m750.933333 113.962667a42.666667 42.666667 0 0 0 0-85.333333h-149.333333a42.666667 42.666667 0 0 0 0 85.333333h149.333333zM381.866667 800.938667a213.333333 213.333333 0 1 0 0-426.666667 213.333333 213.333333 0 0 0 0 426.666667zM940.8 512a42.666667 42.666667 0 1 0 0-85.333333h-238.933333a42.666667 42.666667 0 1 0 0 85.333333h238.933333zM381.866667 715.605333a128 128 0 1 1 0-256 128 128 0 0 1 0 256z"  horiz-adv-x="1024" />
      
      <glyph glyph-name="jichu-dianzantianchong" unicode="&#59021;" d="M188.16 533.504c13.909333 0.042667 25.002667-11.349333 24.96-25.258667L210.773333-59.818667a25.6 25.6 0 0 0-25.6-25.514666h-17.792a115.328 115.328 0 0 0-115.285333 115.2v388.266666c0 63.701333 51.712 115.2 115.2 115.328l20.821333 0.042667zM453.546667 848.341333c37.418667 10.794667 93.184 5.632 134.826666-32.256 44.074667-40.192 62.165333-107.306667 42.496-200.106666-1.834667-8.661333-6.528-30.122667-11.434666-52.181334h205.354666c39.765333 0 71.04-11.818667 93.610667-33.749333 18.218667-17.706667 29.952-41.258667 37.632-65.152 7.808-24.32 12.373333-51.925333 14.506667-80.64 4.138667-57.429333-1.28-123.818667-14.08-187.392-12.8-63.402667-33.578667-126.549333-61.738667-176.725333-27.050667-48.213333-66.688-94.293333-121.429333-104.704a42.666667 42.666667 0 0 0-7.978667-0.768H321.792a25.6 25.6 0 0 0-25.6 25.685333l2.432 616.106667c0.085333 18.048 6.144 35.413333 15.701333 50.730666 23.125333 36.992 32.938667 67.498667 40.618667 88.32 4.693333 12.629333 8.234667 25.258667 11.904 38.784 3.456 12.8 7.381333 27.733333 12.586667 41.344 11.178667 29.44 31.061333 60.245333 74.112 72.704z"  horiz-adv-x="1024" />
      
      <glyph glyph-name="a-jichu-" unicode="&#59030;" d="M528.597333 827.050667c129.024 0 230.570667-38.229333 304.64-115.882667 63.317333-66.901333 95.573333-149.333333 95.573334-247.296 0-83.626667-27.477333-161.28-80.042667-232.96-53.76-70.485333-114.688-106.325333-183.978667-106.325333-50.176 0-78.848 25.088-87.210666 74.069333-34.645333-50.176-81.237333-75.264-138.581334-75.264-53.76 0-96.768 17.92-130.218666 53.76-33.450667 35.84-50.176 81.237333-50.176 134.997333 0 83.626667 25.088 156.501333 77.653333 221.013334 51.370667 65.706667 113.493333 97.962667 185.173333 97.962666 51.370667 0 87.210667-27.477333 108.714667-82.432l16.725333 59.733334h106.325334l-81.237334-291.498667c-11.946667-43.008-17.92-69.290667-17.92-80.042667 0-15.530667 8.362667-23.893333 26.282667-23.893333 33.450667 0 66.901333 22.698667 100.352 65.706667 38.229333 50.176 57.344 112.298667 57.344 183.978666 0 74.069333-26.282667 137.386667-78.848 188.757334-58.538667 57.344-137.386667 84.821333-237.738667 84.821333-107.52 0-192.341333-33.450667-256.853333-101.546667-64.512-66.901333-95.573333-154.112-95.573333-260.437333 0-117.077333 33.450667-206.677333 101.546666-266.410667 62.122667-54.954667 151.722667-82.432 267.605334-82.432 77.653333 0 143.36 13.141333 198.314666 37.034667 50.176 23.893333 89.6 56.149333 120.661334 99.157333h112.298666c-41.813333-75.264-103.936-132.608-185.173333-170.837333-74.069333-33.450667-155.306667-50.176-246.101333-50.176-152.917333 0-272.384 39.424-357.205334 118.272-84.821333 78.848-126.634667 186.368-126.634666 320.170667 0 124.245333 40.618667 228.181333 123.050666 311.808 88.405333 90.794667 205.482667 136.192 351.232 136.192z m14.336-299.861334c-45.397333 0-84.821333-22.698667-118.272-68.096a248.874667 248.874667 0 0 1-50.176-151.722666c0-28.672 5.973333-50.176 17.92-64.512 11.946667-15.530667 29.866667-23.893333 56.149334-23.893334 22.698667 0 45.397333 8.362667 66.901333 25.088a152.362667 152.362667 0 0 1 50.176 74.069334l23.893333 86.016c9.557333 34.645333 14.336 56.149333 14.336 63.317333 0 17.92-7.168 32.256-19.114666 43.008a56.746667 56.746667 0 0 1-41.813334 16.725333z"  horiz-adv-x="1024" />
      
      <glyph glyph-name="jichu-wuxuliebiao" unicode="&#59051;" d="M153.557333 131.114667a68.266667 68.266667 0 1 0 0-136.533334 68.266667 68.266667 0 0 0 0 136.533334z m750.506667-25.6a42.666667 42.666667 0 0 0 0-85.333334H336a42.666667 42.666667 0 0 0 0 85.333334h568.064zM153.557333 452.266667a68.266667 68.266667 0 1 0 0-136.533334 68.266667 68.266667 0 0 0 0 136.533334z m750.506667-25.6a42.666667 42.666667 0 0 0 0-85.333334H336a42.666667 42.666667 0 1 0 0 85.333334h568.064zM153.557333 773.418667a68.266667 68.266667 0 1 0 0-136.533334 68.266667 68.266667 0 0 0 0 136.533334z m750.506667-25.6a42.666667 42.666667 0 0 0 0-85.333334H336a42.666667 42.666667 0 0 0 0 85.333334h568.064z"  horiz-adv-x="1024" />
      
      <glyph glyph-name="jichu-shijian" unicode="&#59052;" d="M512 690.176a42.666667 42.666667 0 0 0 42.666667-42.666667v-240.256l0.426666-8.405333a85.333333 85.333333 0 0 1 24.576-51.925333l102.229334-102.314667a42.666667 42.666667 0 0 0-60.330667-60.330667l-102.229333 102.314667a170.666667 170.666667 0 0 0-49.792 112.213333L469.333333 407.253333v240.213334a42.666667 42.666667 0 0 0 42.666667 42.666666zM512 853.333333c259.2 0 469.333333-210.133333 469.333333-469.333333s-210.133333-469.333333-469.333333-469.333333S42.666667 124.8 42.666667 384 252.8 853.333333 512 853.333333z m0-85.333333a384 384 0 1 1 0-768 384 384 0 0 1 0 768z"  horiz-adv-x="1024" />
      
      <glyph glyph-name="jichu-xiazai" unicode="&#59053;" d="M310.186667 802.304a42.666667 42.666667 0 0 0 0-85.333333H213.333333a85.333333 85.333333 0 0 1-85.333333-85.333334v-512a85.333333 85.333333 0 0 1 85.333333-85.333333h597.333334a85.333333 85.333333 0 0 1 85.333333 85.333333v512a85.333333 85.333333 0 0 1-85.333333 85.333334h-98.090667a42.666667 42.666667 0 0 0 0 85.333333H810.666667a170.666667 170.666667 0 0 0 170.666666-170.666667v-512a170.666667 170.666667 0 0 0-170.666666-170.666666H213.333333a170.666667 170.666667 0 0 0-170.666666 170.666666v512a170.666667 170.666667 0 0 0 170.666666 170.666667h96.853334z m201.856 16.725333a42.666667 42.666667 0 0 0 42.666666-42.666666v-398.421334l27.818667 26.88a42.666667 42.666667 0 1 0 59.306667-61.354666l-100.181334-96.853334a42.666667 42.666667 0 0 0-59.306666 0l-100.181334 96.853334a42.666667 42.666667 0 0 0 59.306667 61.354666l27.904-26.922666V776.362667a42.666667 42.666667 0 0 0 42.666667 42.666666z"  horiz-adv-x="1024" />
      
      <glyph glyph-name="jichu-suoding" unicode="&#59054;" d="M512 328.064a42.666667 42.666667 0 0 0 42.666667-42.666667v-140.672a42.666667 42.666667 0 0 0-85.333334 0v140.629334a42.666667 42.666667 0 0 0 42.666667 42.709333zM512 842.154667a270.250667 270.250667 0 0 0 270.250667-270.208v-54.570667c64.853333-17.92 113.749333-75.818667 113.749333-146.56v-292.565333c0-85.632-71.552-152.405333-156.458667-152.405334H284.458667C199.552-74.154667 128-7.381333 128 78.250667V370.773333c0 70.741333 48.896 128.64 113.792 146.56V571.946667A270.208 270.208 0 0 0 512 842.154667z m-227.541333-404.309334c-40.746667 0-71.125333-31.445333-71.125334-67.029333v-292.565333c0-35.584 30.378667-67.072 71.125334-67.072h455.082666c40.746667 0 71.125333 31.488 71.125334 67.072V370.773333c0 35.584-30.378667 67.029333-71.125334 67.029334H284.458667zM512 756.821333a184.874667 184.874667 0 0 1-184.874667-184.874666v-48.768h369.792V571.946667A184.917333 184.917333 0 0 1 512 756.821333z"  horiz-adv-x="1024" />
      
      <glyph glyph-name="jichu-xiahuaxian" unicode="&#59055;" d="M781.397333 34.645333a42.666667 42.666667 0 0 0 0-84.906666l-4.352-0.213334H246.997333a42.666667 42.666667 0 1 0 0 85.333334h530.048l4.352-0.213334zM768 820.992a46.933333 46.933333 0 0 0 46.933333-46.976v-370.517333a302.933333 302.933333 0 0 0-605.866666 0V774.016a46.933333 46.933333 0 1 0 93.866666 0v-370.517333a209.066667 209.066667 0 0 1 418.133334 0V774.016a46.933333 46.933333 0 0 0 46.933333 46.933333z"  horiz-adv-x="1024" />
      
      <glyph glyph-name="jichu-shuaxin" unicode="&#59056;" d="M940.245333 417.493333a41.770667 41.770667 0 0 0 41.088-42.453333 466.346667 466.346667 0 0 0-136.917333-323.413333c-183.04-183.04-480.170667-182.528-663.722667 0.981333a41.813333 41.813333 0 0 0 31.530667 71.296l122.88-5.632-3.413333-74.752c145.962667-77.781333 331.008-55.424 453.632 67.2a382.848 382.848 0 0 1 112.469333 265.642667 41.728 41.728 0 0 0 42.410667 41.130666z m-96.853333 297.898667a41.813333 41.813333 0 0 0-32.426667-71.253333l-138.368 9.6 5.418667 78.037333C534.4 800.682667 357.376 775.893333 238.762667 657.237333a383.061333 383.061333 0 0 1-112.426667-279.296 41.813333 41.813333 0 0 0-83.541333-1.621333A466.602667 466.602667 0 0 0 179.626667 716.373333c183.04 183.04 480.213333 182.570667 663.765333-0.981333z"  horiz-adv-x="1024" />
      
      <glyph glyph-name="jichu-liaotianjilu" unicode="&#59057;" d="M691.669333 494.08a242.474667 242.474667 0 0 0 199.125334-380.629333l67.754666-67.754667a42.666667 42.666667 0 0 0-60.330666-60.330667l-67.626667 67.626667A242.474667 242.474667 0 1 0 691.669333 494.08zM369.493333 60.757333a42.666667 42.666667 0 0 0 0-85.333333H95.573333a42.666667 42.666667 0 0 0 0 85.333333h273.834667z m322.218667 348.074667a157.141333 157.141333 0 1 1 0.042667-314.325333 157.141333 157.141333 0 0 1 0 314.325333z m-409.002667-98.645333a42.666667 42.666667 0 0 0 0-85.333334H108.501333a42.666667 42.666667 0 0 0 0 85.333334h174.165334zM382.293333 554.368a42.666667 42.666667 0 0 0 0-85.333333H108.501333a42.666667 42.666667 0 1 0 0 85.333333h273.834667zM921.173333 795.136a42.666667 42.666667 0 0 0 0-85.333333H95.616a42.666667 42.666667 0 0 0 0 85.333333h825.514667z"  horiz-adv-x="1024" />
      
      <glyph glyph-name="jichu-guanbitianchong" unicode="&#59058;" d="M512 853.333333c259.2 0 469.333333-210.133333 469.333333-469.333333s-210.133333-469.333333-469.333333-469.333333S42.666667 124.8 42.666667 384 252.8 853.333333 512 853.333333z m169.770667-299.52a42.666667 42.666667 0 0 1-60.330667 0l-109.482667-109.44-109.397333 109.397334A42.666667 42.666667 0 0 1 342.186667 493.44l109.397333-109.397333-109.397333-109.482667a42.666667 42.666667 0 0 1 60.330666-60.330667l109.397334 109.482667 109.482666-109.482667a42.666667 42.666667 0 1 1 60.330667 60.330667l-109.482667 109.482667 109.482667 109.397333a42.666667 42.666667 0 0 1 0 60.330667z"  horiz-adv-x="1024" />
      
      <glyph glyph-name="jichu-fasong" unicode="&#59059;" d="M865.962667 437.205333L214.442667 782.165333c-45.312 24.021333-97.962667-16.042667-86.954667-66.133333l53.12-241.322667a60.16 60.16 0 0 1 53.76-47.018666l338.688-28.672c18.346667-1.578667 18.389333-28.458667 0-29.994667l-338.773333-28.757333a60.202667 60.202667 0 0 1-53.674667-47.061334l-53.12-241.237333c-11.008-50.090667 41.642667-90.154667 86.954667-66.133333l651.52 344.96c42.666667 22.613333 42.666667 83.797333 0 106.410666z"  horiz-adv-x="1024" />
      
      <glyph glyph-name="jichu-jiesuo" unicode="&#59060;" d="M711.082667 842.154667A270.250667 270.250667 0 0 0 981.333333 571.946667a42.666667 42.666667 0 0 0-85.333333 0 184.917333 184.917333 0 0 1-369.749333 0v-48.768h127.914666c84.906667 0 156.458667-66.773333 156.501334-152.362667v-292.565333c0-85.632-71.552-152.405333-156.501334-152.405334H199.082667C114.176-74.154667 42.666667-7.381333 42.666667 78.250667V370.773333c0 85.589333 71.509333 152.362667 156.458666 152.362667h241.792V571.946667a270.208 270.208 0 0 0 270.165334 270.208zM426.666667 328.064a42.666667 42.666667 0 0 1-42.666667-42.709333v-140.672a42.666667 42.666667 0 0 1 85.333333 0.042666V285.44a42.666667 42.666667 0 0 1-42.666666 42.666667z"  horiz-adv-x="1024" />
      
      <glyph glyph-name="jichu-gaoliangxinxi" unicode="&#59061;" d="M642.688 0.597333a42.666667 42.666667 0 0 0 0-85.333333H381.354667a42.666667 42.666667 0 0 0 0 85.333333h261.290666zM620.629333 546.944a42.666667 42.666667 0 0 0 60.330667-60.330667l-88.106667-88.149333a59.733333 59.733333 0 0 0-88.832 4.864l-31.786666 39.68-68.864-68.906667a42.666667 42.666667 0 0 0-60.330667 60.330667l89.045333 89.045333 4.906667 4.394667a59.733333 59.733333 0 0 0 79.530667-4.352l4.394666-4.864 31.744-39.68 67.968 67.968zM512 852.736a384 384 0 0 0 384-384 383.573333 383.573333 0 0 0-175.488-322.346667l-16.213333-38.869333a85.418667 85.418667 0 0 0-72.362667-52.224l-6.4-0.213333h-226.986667a85.333333 85.333333 0 0 0-78.677333 52.309333l-16.341333 38.912A384 384 0 0 0 512 852.736z m0-85.333333a298.666667 298.666667 0 0 1-157.738667-552.277334c9.6-5.973333 17.792-14.592 23.296-25.173333l2.176-4.693333 18.773334-44.842667h227.029333l18.773333 44.842667 2.133334 4.693333c5.504 10.666667 13.738667 19.285333 23.338666 25.258667A298.666667 298.666667 0 0 1 512 767.36z"  horiz-adv-x="1024" />
      
      <glyph glyph-name="jichu-tongxunlu" unicode="&#59062;" d="M573.866667 333.994667a149.333333 149.333333 0 0 0 149.333333-149.333334v-153.6a64 64 0 0 0-64-64h-554.666667a64 64 0 0 0-64 64v153.6a149.333333 149.333333 0 0 0 149.333334 149.333334h384z m-384-85.333334a64 64 0 0 1-64-64v-132.266666h512v132.266666a64 64 0 0 1-64 64h-384z m750.933333 113.962667a42.666667 42.666667 0 0 0 0-85.333333h-149.333333a42.666667 42.666667 0 0 0 0 85.333333h149.333333zM381.866667 800.938667a213.333333 213.333333 0 1 0 0-426.666667 213.333333 213.333333 0 0 0 0 426.666667zM940.8 512a42.666667 42.666667 0 1 0 0-85.333333h-238.933333a42.666667 42.666667 0 1 0 0 85.333333h238.933333zM381.866667 715.605333a128 128 0 1 1 0-256 128 128 0 0 1 0 256z"  horiz-adv-x="1024" />
      
      <glyph glyph-name="jichu-jiahaoyuanquan" unicode="&#59063;" d="M512 853.333333c259.2 0 469.333333-210.133333 469.333333-469.333333s-210.133333-469.333333-469.333333-469.333333S42.666667 124.8 42.666667 384 252.8 853.333333 512 853.333333z m0-85.333333a384 384 0 1 1 0-768 384 384 0 0 1 0 768z m-4.138667-149.333333a42.666667 42.666667 0 0 0 42.666667-42.666667v-146.688H704a42.666667 42.666667 0 0 0 0-85.333333h-153.472V192a42.666667 42.666667 0 1 0-85.333333 0v151.978667H320a42.666667 42.666667 0 0 0 0 85.333333h145.194667V576a42.666667 42.666667 0 0 0 42.666666 42.666667z"  horiz-adv-x="1024" />
      
      <glyph glyph-name="jichu-guanbi" unicode="&#59064;" d="M860.885333 793.173333a42.666667 42.666667 0 0 0 60.330667-60.288L572.330667 384l348.885333-348.885333a42.666667 42.666667 0 0 0-60.330667-60.330667L512 323.669333l-348.885333-348.885333a42.666667 42.666667 0 0 0-60.330667 60.330667L451.669333 384 102.826667 732.885333A42.666667 42.666667 0 1 0 163.114667 793.173333L512 444.330667l348.885333 348.885333z"  horiz-adv-x="1024" />
      
      <glyph glyph-name="jichu-xinchuangkou" unicode="&#59065;" d="M510.677333 812.757333a42.666667 42.666667 0 0 0 0-84.906666l-4.352-0.213334H256.512a128 128 0 0 1-128-128v-469.333333a128 128 0 0 1 128-128h469.333333a128 128 0 0 1 128 128v249.813333a42.666667 42.666667 0 0 0 85.333334 0v-249.813333a213.333333 213.333333 0 0 0-213.333334-213.333333h-469.333333a213.333333 213.333333 0 0 0-213.333333 213.333333v469.333333a213.333333 213.333333 0 0 0 213.333333 213.333334h249.813333l4.352-0.213334zM904.234667 850.602667a85.333333 85.333333 0 0 0 76.586666-84.906667v-195.413333a42.666667 42.666667 0 0 0-85.333333 0v129.28l-314.325333-314.325334a42.666667 42.666667 0 1 0-60.330667 60.330667l317.866667 317.866667c0.810667 0.853333 1.664 1.536 2.517333 2.261333h-141.184a42.666667 42.666667 0 1 0 0 85.333333h195.456l8.746667-0.426666z"  horiz-adv-x="1024" />
      
      <glyph glyph-name="quesheng-sousuo" unicode="&#59011;" d="M493.056 782.208a379.264 379.264 0 0 0 299.264-612.224l104.106667-104.106667a46.933333 46.933333 0 0 0-66.261334-66.389333l-104.192 104.149333a379.264 379.264 0 1 0-232.96 678.570667z m0-83.456A295.808 295.808 0 1 1 691.328 183.466667a46.805333 46.805333 0 0 0 21.248 21.248 295.808 295.808 0 0 1-219.52 494.08z m1.536-61.610667a29.909333 29.909333 0 1 0 0-59.733333 175.189333 175.189333 0 0 1-175.445333-174.933333 29.909333 29.909333 0 0 0-59.904 0c0 129.578667 105.386667 234.666667 235.349333 234.666666z"  horiz-adv-x="1024" />
      
      <glyph glyph-name="jichu-zanting" unicode="&#59012;" d="M320 791.296a97.536 97.536 0 0 0 97.536-97.493333v-637.653334a97.536 97.536 0 0 0-195.072 0V693.76A97.536 97.536 0 0 0 320 791.296z m393.856 0a97.536 97.536 0 0 0 97.493333-97.493333v-637.653334a97.536 97.536 0 0 0-195.029333 0V693.76a97.536 97.536 0 0 0 97.536 97.493333z"  horiz-adv-x="1024" />
      
      <glyph glyph-name="jichu-yuyin" unicode="&#59013;" d="M656.853333 803.498667a46.933333 46.933333 0 0 0 66.346667-1.152C826.794667 695.04 890.666667 547.072 890.666667 384s-63.872-311.04-167.466667-418.346667a46.933333 46.933333 0 0 0-67.498667 65.194667c87.04 90.154667 141.098667 214.954667 141.098667 353.152 0 138.24-54.058667 262.997333-141.098667 353.152a46.933333 46.933333 0 0 0 1.152 66.346667z m-228.266666-151.466667a46.933333 46.933333 0 0 0 65.962666-7.210667c54.826667-68.096 87.509333-160.512 87.509334-260.864s-32.682667-192.768-87.466667-260.864a46.933333 46.933333 0 0 0-73.216 58.88c40.533333 50.346667 66.816 121.6 66.816 201.984 0 80.426667-26.282667 151.68-66.816 202.069334a46.933333 46.933333 0 0 0 7.168 65.962666z m-218.112-193.152a77.141333 77.141333 0 1 0-0.042667-154.325333 77.141333 77.141333 0 0 0 0.042667 154.325333z"  horiz-adv-x="1024" />
      
      <glyph glyph-name="quesheng-wenjian" unicode="&#59014;" d="M555.562667 410.368a42.666667 42.666667 0 0 0 0-85.333333h-207.786667a42.666667 42.666667 0 1 0 0 85.333333h207.786667zM676.266667 577.109333a42.666667 42.666667 0 0 0 0-85.333333h-328.533334a42.666667 42.666667 0 1 0 0 85.333333h328.533334zM725.333333 810.666667a170.666667 170.666667 0 0 0 170.666667-170.666667v-503.808c0-113.024-107.861333-194.816-216.746667-164.309333l-136.618666 38.272a85.376 85.376 0 0 1-45.013334 0.256l-155.008-41.301334C234.282667-59.733333 128 21.888 128 134.016V640a170.666667 170.666667 0 0 0 170.666667 170.666667h426.666666zM298.666667 725.333333a85.333333 85.333333 0 0 1-85.333334-85.333333v-506.026667a85.333333 85.333333 0 0 1 107.349334-82.432l154.965333 41.344a170.794667 170.794667 0 0 0 90.026667-0.554666l136.618666-38.272A85.333333 85.333333 0 0 1 810.666667 136.192V640a85.333333 85.333333 0 0 1-85.333334 85.333333H298.666667z"  horiz-adv-x="1024" />
      
      <glyph glyph-name="jichu-loading" unicode="&#59015;" d="M42.666667 384C42.666667 643.2 252.8 853.333333 512 853.333333c129.792 0 247.338667-52.778667 332.245333-137.856a42.666667 42.666667 0 0 0-35.114666-72.533333l-191.701334 22.357333a42.666667 42.666667 0 0 0 9.856 84.736l1.493334-0.170666A384 384 0 1 1 896 384a42.666667 42.666667 0 1 0 85.333333 0c0-259.2-210.133333-469.333333-469.333333-469.333333S42.666667 124.8 42.666667 384z"  horiz-adv-x="1024" />
      
      </font>
</defs>
</svg>
